<svg id="Calque_1" data-name="Calque 1" xmlns="http://www.w3.org/2000/svg" viewBox="0 0 80.3 39.43"><defs><style>.cls-1{fill:#da1d1f;}</style></defs><title>backToTop</title><path class="cls-1" d="M13.64,40.94a4.73,4.73,0,0,1,.28-1.67,3.38,3.38,0,0,0,1.13-.39A4.29,4.29,0,0,0,16,38.2a9.7,9.7,0,0,0,1.36-1.85c.81-1.35,1.61-2.79,3.3-3.52,2.67-1.91,4.25-3.93,7.21-5-.65-3.69,5.36-2.83,6.4-6.1,1.15-1.22,1.31-2.89,0-2.78,1.8-1.27,1.94.38,3.23-1.12v1.39c.62-.05,1.44.16,2-.44l.27-1.55c2.38.11,2.48-2.68,4.83-3.1-1.66,0,.32-1-.2-1.79.49.25,1.8-.24,1.53.32,1.82-.63,2.75-3.52,4-2.28.13-.28.27-.55.42-.84.42-.65.87-.89,1.33-.77a3.29,3.29,0,0,1,1.15,1l.26-.62a2,2,0,0,1,1.1.53,2.88,2.88,0,0,1,.49.55,2.61,2.61,0,0,1,.33.67c1.45,1.48,4.13,1.66,6.2,2.18,1.37,1.78,1.53-.37,3.23.34.77,1.06,2.88,1.44,3.07,2.68-1.38-.89-2.4.55-3.64-.8.25.89-2.7-1.14-1.85.54,3.41.64,6.13,4.28,9.31,4.78-1,1.43,2.6,3.17,3.84,3.74l-.16.48a6.18,6.18,0,0,0,3.24,2c1.84,1.18,3.77,2.19,4.72,4.19a6,6,0,0,0,3.12,2.67,12,12,0,0,0,3.2.81,8,8,0,0,0-3.3-3.93,5.71,5.71,0,0,1-2.65-3.89c1.66,1.87,2.09,1.39,4.06,1.87L87,27.54l.77.22c0-.81,1.14-.51,1.39-1.12-.82-.72-1.64-1.38-2.45-2,1,1.5-.19,1.42-.88,1.72l-1.1-1.13c.14.48.77,1.27-.31.95-.42-.47-1.23-.62-1.53-1.38l1.58-.5c-2-.13-1.76-3.22-3.69-3.32L81,19.43l-1.39-.89.39-.32-1.54-1.35a1.44,1.44,0,0,0-1.79.38c-.7-.44-1.44-.72-1.54-1.18l1.18-.2-.59-.76c.36.61-.85,0-1.18.2C73,14,73.43,14.42,72.76,13c-1.31-.25-2.1-2.09-2.69-1.13a27.57,27.57,0,0,0-5.44-4.78H63.49a6.69,6.69,0,0,0-2.63-2.06l-1.4-.61c-.24-.11-.5-.23-.76-.37l-.42-.22L58,3.72l-.37-.24.46-.09c-.88-.24-1.68-.49-2.51-.66a4.06,4.06,0,0,0-3.82-1.1,10.24,10.24,0,0,0-1.85.6A8.15,8.15,0,0,1,47.78,3a11.21,11.21,0,0,0-1.28.55c-.2.09-.39.19-.57.29a4,4,0,0,0-.34.23,3.72,3.72,0,0,0-.93,1A5.63,5.63,0,0,0,44,7.65C43.21,9,41.41,8.78,40.4,9.28l.42-.9-1-.06c-1.3,1.07-1.53.67-3.12,2.34-2.73.89-1.37,2.89-2,4.34l-2.94.14.18.26c-.65,2.45-.76,1.32-4,3.5l.56.76c-1.53-.24-1.37,1.42-2.8,2.28-.66.49-3.47.44-4.13,2.35-2.88.81-2.76,4.15-4.91,5.45-1.53.24-1.67,2.37-2.65,1.12l.22-.17-1.23-1,.47,1.05c-.94.15-1.82,1.28-3.06.65-.29,1-.52,2.08-.71,3.14a2.62,2.62,0,0,1,1.35-1l-.2-.24c.43-.36,1.4-1.36,2.13-1.35l-.45.78c.84-.28.49.62.38.89-1.67.56-.81,1.25-1.66,2.22-.28,0-.73.28-.77-.12-.21.32-.76.64-1.07,1s-.43.84,0,1.11H9.18A11,11,0,0,1,11.62,39,11.51,11.51,0,0,1,13.64,40.94Z" transform="translate(-9.06 -1.51)"/></svg>