<svg id="Calque_1" data-name="Calque 1" xmlns="http://www.w3.org/2000/svg" viewBox="0 0 102.96 63.41"><defs><style>.cls-1{fill:#df3a3b;}</style></defs><title>fleche</title><path class="cls-1" d="M109.79,43c.28.06-1.35-1.86-1.61-2.23A9.65,9.65,0,0,0,109.79,43Z" transform="translate(-9.54 -40.15)"/><polygon class="cls-1" points="101.5 9.16 100.9 8.33 102.13 10.56 101.5 9.16"/><path class="cls-1" d="M108.86,51c2.86,3.2.35-1.16,1.68-.27l.67.72-2-2.84C109.11,49.39,109.93,51.66,108.86,51Z" transform="translate(-9.54 -40.15)"/><path class="cls-1" d="M102,44.56c1.09,1.26.64,1.31.57.21l-.3-.3C102.28,44.52,102.21,44.57,102,44.56Z" transform="translate(-9.54 -40.15)"/><path class="cls-1" d="M102.31,44.47c.14-.26-1-1,0,0Z" transform="translate(-9.54 -40.15)"/><path class="cls-1" d="M101.9,46l-.63-1.39c-.66-.74-1-.72-1.39-1.36A6.57,6.57,0,0,0,101.9,46Z" transform="translate(-9.54 -40.15)"/><path class="cls-1" d="M103.53,48.68l-.23-.61C103,47.76,102.89,47.67,103.53,48.68Z" transform="translate(-9.54 -40.15)"/><path class="cls-1" d="M102.8,46.77l.5,1.3c.46.51,1.31,1.61-.15-.49C103.9,48.6,103.22,47.58,102.8,46.77Z" transform="translate(-9.54 -40.15)"/><path class="cls-1" d="M103.38,47.15a5.11,5.11,0,0,1,1.91,2.31C105.49,48.56,103.56,46.26,103.38,47.15Z" transform="translate(-9.54 -40.15)"/><path class="cls-1" d="M111.49,54.55l1,.81-.7-1.29C112.14,54.71,110.65,53.5,111.49,54.55Z" transform="translate(-9.54 -40.15)"/><path class="cls-1" d="M98.83,45.54c.53.74,1.55,1.88,2.27,2.8l-.43-1A9.09,9.09,0,0,1,98.83,45.54Z" transform="translate(-9.54 -40.15)"/><path class="cls-1" d="M101.1,48.34l.62,1.48C102.11,49.76,101.72,49.13,101.1,48.34Z" transform="translate(-9.54 -40.15)"/><polygon class="cls-1" points="96.83 12.35 95.36 9.33 96.76 12.46 96.83 12.35"/><polygon class="cls-1" points="88.08 6.15 87 4.32 88.58 7.12 88.08 6.15"/><path class="cls-1" d="M97.08,47.14c-.9-1.51-1.89-2.29-2.38-3.25A13.06,13.06,0,0,0,96,46.83C95.74,46.1,96,46.14,97.08,47.14Z" transform="translate(-9.54 -40.15)"/><path class="cls-1" d="M96.88,48.62c-.16-.4-.5-1.07-.87-1.79A12.57,12.57,0,0,0,96.88,48.62Z" transform="translate(-9.54 -40.15)"/><path class="cls-1" d="M100.92,49.85a13.79,13.79,0,0,0-1.78-1.92l1.64,2Z" transform="translate(-9.54 -40.15)"/><path class="cls-1" d="M100.83,50l0-.06a3.27,3.27,0,0,1-.35.08Z" transform="translate(-9.54 -40.15)"/><path class="cls-1" d="M101,49.84h0C101.08,50.05,101.14,50.11,101,49.84Z" transform="translate(-9.54 -40.15)"/><path class="cls-1" d="M104.12,51.29A11.72,11.72,0,0,0,107,55.56C106.11,54.06,105.14,53.23,104.12,51.29Z" transform="translate(-9.54 -40.15)"/><path class="cls-1" d="M103,52.3l.69.22a15,15,0,0,1-1.4-1.92Z" transform="translate(-9.54 -40.15)"/><polygon class="cls-1" points="93.8 12.94 93.48 12.16 93.22 12.08 93.8 12.94"/><path class="cls-1" d="M98.81,50.2c.51,1,.4,1.19.33,1.46.48.28.84.37,1,.23C99.72,51.21,99,50,98.81,50.2Z" transform="translate(-9.54 -40.15)"/><path class="cls-1" d="M99.92,50.28l0,.14C100.12,50.58,100.18,50.62,99.92,50.28Z" transform="translate(-9.54 -40.15)"/><path class="cls-1" d="M97.42,52.82l.29.37-.24-.37Z" transform="translate(-9.54 -40.15)"/><path class="cls-1" d="M100.47,52.25c.43.31.15-.26-.23-1,0,.28,0,.5-.08.6C100.36,52.19,100.49,52.39,100.47,52.25Z" transform="translate(-9.54 -40.15)"/><path class="cls-1" d="M97.1,49.93c.38.39.72.71,1,1C97.61,50.31,96.75,49.36,97.1,49.93Z" transform="translate(-9.54 -40.15)"/><path class="cls-1" d="M99.51,49.88l-.05-.11C99.1,49.36,99.26,49.57,99.51,49.88Z" transform="translate(-9.54 -40.15)"/><path class="cls-1" d="M99.51,49.88c.14.35.46.91.73,1.41a3.19,3.19,0,0,0-.27-.87Z" transform="translate(-9.54 -40.15)"/><path class="cls-1" d="M106,66.91c-1.27-2-2.07-4.11-.28-2.24-.63-1.72-5.27-8-8-11.48a11.29,11.29,0,0,1,1.54,3.06c.83,1,2.45,2,3.36,4,.2,1.33-.86-.44-1.78-1.34,1.83,2.34,1.77,4,4.24,7.58l-.4-1.57A14.58,14.58,0,0,0,106,66.91Z" transform="translate(-9.54 -40.15)"/><path class="cls-1" d="M98.46,53l0-.34a15,15,0,0,1-2.27-2.36,14,14,0,0,0,1.31,2.54l.83-.17Z" transform="translate(-9.54 -40.15)"/><path class="cls-1" d="M99,52.22c1.37,2.19,1.66,3.33,3.46,5.49.32-.44-.94-2-1.34-3.06-.28,1-.64-1.31-2-2.19a1.43,1.43,0,0,1,0-.8,6.82,6.82,0,0,1-1-.74l.11.12h0l0,0c.21.25.33.4.2.27a.11.11,0,0,1,0,0l.53.82c-.49-.31-.41-.53-.53-.82l-.21-.32,0,0,.18,1.6C98.76,52.85,98.89,52.67,99,52.22Z" transform="translate(-9.54 -40.15)"/><path class="cls-1" d="M110,60.29c-.15-.17-.26-.32-.38-.47C109.76,60.11,109.87,60.29,110,60.29Z" transform="translate(-9.54 -40.15)"/><path class="cls-1" d="M108.77,59.25c-.16-.33-.74-1.19-.41-1.1a9,9,0,0,1,1.25,1.67,6.19,6.19,0,0,0-1.83-2.52l.17.32a20.55,20.55,0,0,1-3.25-3.16C106.17,56.28,107.22,57.55,108.77,59.25Z" transform="translate(-9.54 -40.15)"/><path class="cls-1" d="M104.19,56.36l.17,1.43L106,59.4l-.8-1.08C105.79,58.51,104.76,57.22,104.19,56.36Z" transform="translate(-9.54 -40.15)"/><polygon class="cls-1" points="87.11 11.65 85.66 9.33 87.5 12.74 87.11 11.65"/><polygon class="cls-1" points="86.62 12.36 85.34 10.36 85.95 11.67 86.62 12.36"/><path class="cls-1" d="M50.33,91.41l-.6.42A1.85,1.85,0,0,0,50.33,91.41Z" transform="translate(-9.54 -40.15)"/><path class="cls-1" d="M52.42,92.88l.49-1.07C52.57,92.36,52.35,92.78,52.42,92.88Z" transform="translate(-9.54 -40.15)"/><path class="cls-1" d="M77.83,61.62c-1.12-1.94-2.73-5-1.7-2.53l1.06,2.37C77.22,60.94,77.49,61.15,77.83,61.62Z" transform="translate(-9.54 -40.15)"/><path class="cls-1" d="M68.83,82.72l.16.82-.08-2.79Z" transform="translate(-9.54 -40.15)"/><path class="cls-1" d="M69.64,94.75c-.24-.52-.46-1-.68-1.56A5.38,5.38,0,0,0,69.64,94.75Z" transform="translate(-9.54 -40.15)"/><path class="cls-1" d="M40.58,88.81,39,91C39.37,91.15,39.9,89.92,40.58,88.81Z" transform="translate(-9.54 -40.15)"/><path class="cls-1" d="M89.71,57.28c-.65-.81-1-1.12-1.19-1.16C89.4,57.34,90.6,59.26,89.71,57.28Z" transform="translate(-9.54 -40.15)"/><path class="cls-1" d="M62.47,66.46a15.28,15.28,0,0,0-.72,1.41A9.1,9.1,0,0,0,62.47,66.46Z" transform="translate(-9.54 -40.15)"/><path class="cls-1" d="M87.92,56.4c.15.23.24.32.38.51,0-.47,0-.85.22-.79C87.86,55.21,87.35,54.67,87.92,56.4Z" transform="translate(-9.54 -40.15)"/><path class="cls-1" d="M15.23,72.64c0-.11,0-.17.08-.31C15.15,72.65,15.16,72.68,15.23,72.64Z" transform="translate(-9.54 -40.15)"/><path class="cls-1" d="M18.71,45.11c.16-.11.29,0,.43,0C19.16,44.9,19.05,44.86,18.71,45.11Z" transform="translate(-9.54 -40.15)"/><path class="cls-1" d="M92.91,53.19c0-.23-.12-.26,0,0Z" transform="translate(-9.54 -40.15)"/><path class="cls-1" d="M98.92,61.6c.12.26.29.6.59,1.12C99.2,62.18,99,61.82,98.92,61.6Z" transform="translate(-9.54 -40.15)"/><path class="cls-1" d="M93,71.91h0C93.23,72.35,93.18,72.26,93,71.91Z" transform="translate(-9.54 -40.15)"/><path class="cls-1" d="M93.72,54.08a4.85,4.85,0,0,0-.57-.56A3.79,3.79,0,0,0,93.72,54.08Z" transform="translate(-9.54 -40.15)"/><path class="cls-1" d="M93.07,53a1.17,1.17,0,0,0,.25.15C93.11,52.81,93,52.58,93.07,53Z" transform="translate(-9.54 -40.15)"/><path class="cls-1" d="M92.79,53.42c.06-.08.19,0,.36.1a1.54,1.54,0,0,1-.24-.33A.73.73,0,0,1,92.79,53.42Z" transform="translate(-9.54 -40.15)"/><path class="cls-1" d="M32.83,74l.08-.23C32.22,74.6,32.38,74.49,32.83,74Z" transform="translate(-9.54 -40.15)"/><path class="cls-1" d="M83.2,88.62l0-.12-.06-.08Z" transform="translate(-9.54 -40.15)"/><path class="cls-1" d="M83.32,90.67c-1-3.09-.68-2.79-.21-2.25L80,81.59Z" transform="translate(-9.54 -40.15)"/><path class="cls-1" d="M45.6,89.43l-.77,2.27c-2.48,3-2.17,1.64-3.45,4.7,4.25-7,1.94.19,6.55-6.54l-.36,1.78c-.1-.15-.36.25-.46.1-.9,4,3.53-4.75,4-3.09a3.69,3.69,0,0,1-.81,2.76c.59-.43,1.16-.86,1.72-1.31.18.3-.44,1.58-.64,1.27l1.6.22-.1.22c.67-1.08,1.79-2.72,2.27-3.41-.1,1.31-.46.73-.74,1.75.47-.49.92-1,1.36-1.49-.42,2.23-1.68,3.86-2.1,3.25-1.09,4.11-.71,3.74-.13,3s1.35-1.86,1.41,1l-1.07.55c-.93,4.86.22,3.61.4,7.12.08-.84.09-3,.33-5s.68-4.09,1.37-4.85c.05.75.29,1.25,1.15-.15-.76,2.94-.12,2.5.46,2.67l-.94,3.94c.91-.74,1.29-2.81,2-4.4.56.8.12,4-.17,6.81.54.7.54-.71.62-2.26s.25-3.25.92-3.26c.62,2.12,1.55.86,2.76-1.1.44,1.85-.35,2.56-.25,3.92.28-1,.56-2.06.82-3.1a6.16,6.16,0,0,1-.07,1.71c.53-1.07.37-4.3,1.06-5.09.29-3.18.54,1.48,1.11,3.06.28.62.62.52.9-1.51.2,1.15-.11,2.81,0,4.5.61-2.2.83-3,1-3.94s.37-2,.69-4.68c.28.81.59,1.61.91,2.4-.77-2.91-.27-7.15-.13-10.47l-.63-3.25c.15-.85.29-1.69.4-2.52a28.72,28.72,0,0,1,.31,3.8l0-1A27.8,27.8,0,0,1,69.54,86c-.19-.76-.37-1.59-.55-2.43.07,2.66.09,5.65.34,8.11a5.23,5.23,0,0,1,.22-1.33,12.25,12.25,0,0,0,.09,1.79c.07.42.09-.58.14-1.74l.72,4.55L70.36,93c.56.71,1.16,1.4,1.79,2.06.4-5.19-.19-12.14.42-14.39a86.34,86.34,0,0,0,2.21,8.84c-.72-1.85-.87-1.3-1-.3s-.28,2.46-.77,2.27c.5.19.79,2.07.8,2.77.27-1.54.49-3,.67-4.46.72,3.07.87,2.12,1.61,3.15-1.88-5.8,0-4.52,0-6.57.68,1.92,1.18,3.95.3,3.88,1.07,2,.84.1.49-1.77s-.78-3.82.24-2.17c-.15.13-.34-.13-.06.88-.23-1.88,1.19-1,1.63.77l-.16.12a2,2,0,0,0,1.14-.28,1,1,0,0,0,.39-.36,2,2,0,0,0,.23-.54c.22-.87.09-2.39-.85-4.76.27.61,2.3,5.7,2.66,6.67-1.79-5.46-3.51-10.94-5.21-16.43,1.56,4.1,6.05,13.53,6.35,16.09.43.5.94,1.08.74-.52a46.62,46.62,0,0,1-2.72-6.16c2.35,4.3,1.34,2.27,3.52,5.87-.55-.79-2.94-7.24-2.54-7.17.34,1,2.59,6.27,2.75,7l-1.77-6.57a50.39,50.39,0,0,0,3,7c-.58-1.2.71-.16.67-.87l-.92-1.32c1.27.59-2.66-9.15-1.64-9.18.42,1.33,2.94,8.06,3.71,8.67-1.08-3.29-5.27-15.8-5.5-18.58l.9,1.77-.25-2.33c1.59,5,4.62,15.55,5.62,19.73.92,1.32,1,2.13,1.41,1.75.88,1.65.77,2.72.66,2.89l1.65.62c-1.56-3.72-.6-4.13-1.91-7.22l.27,4.4c-1.56-3.71-3.54-10.91-2.44-10.6.83,1.4,2.55,6.72,3.07,8-.41-1.33-.18-2.8.27-1.92l.45,2.15c1.07,1.2-1.24-5.27.8-1.94.29.16,2.61,4.53,1.72,2.32C92.6,82.15,87.08,69,86,65.75c.18.26,2.67,3.64,3.78,5.64,1.74,3.19,2.89,8.12,4.37,10.86a19.48,19.48,0,0,1-.86-2.78c.58.77,1.25,3.17,1.51,2.52-1.53-3.78,1.07-.09-1.14-3.27,0-1.26.8.57,1.26.17a46.38,46.38,0,0,1-3.23-9.68c.4,1,1,2.16,1.35,2.7,1,0,2.26,1.41,3.1,1.06a15.13,15.13,0,0,1,2,3.42c-.19-.72-.68-2-.46-2.24,2,2.93-.35.79,1.89,4.42-1-2.15-.74-3.29-1-4.8-1.75-3.23-1.14-.22-.88,1.3-2.18-4.57-3.88-9.64-4.18-12.1,0-1.42,1.74,2.79,1.52,2.09,1.58.17-3.17-8.32-.57-5.56,1.91,2.63,3.11,5.61,4.31,7.61.06,1.35-1.77-1.38-2-1.09l1.14,1.13c.34,1,.37,1.93-.26,1.21,1.7,2.38,2.31-.59,4.58,1.17a11.11,11.11,0,0,0-1.46-3.2l-.06.55c-1.56-2.09-1.29-3.41-2.26-4.25-.55-1.8-1.66-4.48-.41-3.52l2,3.07c-.58-.9-1.47-1.66-1-.62-.66-1.51,3.4,3.75,1.08-.48L98.3,59.13C97.68,57.35,96,53.79,97,54.51c-2.15-2.93.12.42-2.45-3,3.09,4.31-1.12.44,2.22,4.9-2.89-4-1.62-1.45-4.16-4.83.64,1,1.33,1.91.7,1.59.16.31.36.72.47,1l-.07-.07.1.12c.07.16.09.2,0,0A17,17,0,0,1,95,55.72c1.27,2.49.66,2.75,1.19,4.11-.5-.38-.61-1.26-1.37-2.31l.79,2c-1.37-2.32-2.74-3.6-3.06-5.23l-.46.12c-1-1.17-1.59-1.54-1.25-.44-.47-.41.9,2.9.09,1L91,56.78l-.32-.6c-.81,0,.54,4.73-2.38.73,0,.72.14,1.6-.59,1.09l-1-2.08c0,.88-1.89-1.71-1,.57-2.87-5.59-2.06-.58-3.12-1.35L83.67,58c-.48,0-.52,1-.58,2.32l1.06,2.47c.38,2.23-1.9-1.28-2.52-.73-.33-1,0-.8.31-.28-3.15-5.28-.2,4.85-2.68,1.07.16,1-.11.75-.51.18t0-.15a.09.09,0,0,0-.1,0c-.26-.39-.56-.85-.82-1.21a14.37,14.37,0,0,0,.78,1.24c-.14.11-.25.52-.24,1.24l-1.18-2.64s0,0,0,.1c-.63-.9.32,1.34,1.26,3.31a12.8,12.8,0,0,0,.34,1.74c-1.93-4.25,0,1.71-2.17-2.79.75,2.31-.53,2.18,1.28,7-.26-.62-.45-.88-.34-1-.48-.43-1-.86-.67.57L75.36,67l1.3,4.8A17,17,0,0,1,74.06,66c.81,4.38-.08,1.8.87,6.08L74,69.92c-.23.19.61,3.3-.33,1.56a3.41,3.41,0,0,0-1.55-1.58,4.28,4.28,0,0,0-.5-.14,1,1,0,0,0-.38,0c-.49.08-1.09.28-2-1.61,1,3.39.68,2.67.32,1.76s-.74-2-.14.68a32.52,32.52,0,0,1-.93-4c0,.88-.23.28-.37,0s-.2-.14,0,2.28c-.29-1.7-.32-2.53-.51-3.53,0,.38.14,1.53,0,.52s-.18-1.46-.26-2.21c-.12.37.47,5.74,1,10.78-.52-2.24-.54-1.88-.46,1.59A13.72,13.72,0,0,1,67.72,72c-.21-.14-1-2-.88,2.22-.07-1-.22-.19-.26.33-.27,0-.35-.23-.54-.09a1.62,1.62,0,0,0-.21.3l.08.66c-.34,5.48-.39,1.15-.72,1.6l0-.52c-.23-2.11-.3-1.69-.42-1.36s-.24.58-.31-1.7l-.34,3.17c-.43,3.36-.52,2.23-.53.59s.11-3.76-.3-2.63l-.16,1.83c-.32,1-.11-1.29.28-3.94s.93-5.64,1-6.07a9.41,9.41,0,0,1,.36-1.25c.61-3.91-.9,3.86-1.42,4.57.48-2.09,1.37-5.22,1.35-5.68.19-.84-.32.77-.87,2s-1.1,2.2-.55.25a25.71,25.71,0,0,1-1.5,4.13c-.23.19.12-1.33.34-2.28s.27-1.38-.85.83c.15-.42.31-.8.47-1.16-.69,1.07-1.48,1.58-2.89,3.86,1.12-2.23,1.48-3.11,1.44-3.31s-.13,0-.3.12l-.3.28-.43.29c-1.16.83-2.32,1.77,0-2.17l-1.3-.2.51-.79c-.36-.92-1.72.84-3.07,2.59a6.82,6.82,0,0,1,1-1.7c0-2.17-.34-1.89-3.46,1.57l1.41-2.62c-1.09,1.37.92-4.86-1.79-2.41a9.28,9.28,0,0,1,.77-1.1c-2.81,2.4,1.46-8.67-4.29.52l-2,1.92c.51,1.25-2.45,4-3,5.79-.67.35.68-3.37,1.39-3.6l-.19.51C48.18,62.6,45.08,65,47,61.69c-2-.78-2.26-4.52-3.89-5.68l-1.9,4-.49-.54c.33-1,1.43-3.14,1.78-2.74,1-2.31-1.73,1.44-2.19,2.27,0-2,2.77-4.32,2.56-4.56l-.51.1-.16.49C41,56.41,40.12,58.07,39.7,57.6c.09-1,1.11-2.47,1.06-2.68.15-.28.18-.44-.14-.23L40,54,38.7,57.17c-1.14,1.32-.63-.55-2.13,3.1,2.34-5.62-1.82-3.43-1.27-5.25-1.65,2-2.09,1.7-2.53,1.12-.19.72-1.91,4.21-2.19,3.53,3.9-7,.7-3.57,3-8.92-1.4,3.6-1.87.1-3.79,5.24-.12-.8,1.35-2.69,1.9-4.53-2.42,2.25-1.3-2.94-3-2.64a22.92,22.92,0,0,1-2,3.75l1.72-5c-.49.34-3,5.33-1.77,1.83a8.35,8.35,0,0,1-1.16,2.29c-.17-5.83-6.82,1.32-5.12-8.58-.54,2-.86,2.08-1.15,2a32.74,32.74,0,0,1-1.72,3.65l.67-4.08c-1.9,3.49-1.24-.3-3,3.08l.62-.46c-2.36,3.84-3.66,9.28-6.2,14.44,2.68-4.37-2,7.4,1.93,1.2-.34,1.14-1,1.6-1.44,2.84,1.27-2.12,1.73-2.46,1.69-1.26l-.31.53c1.49.06,1,2.5,1.63,4.63l1.15-2.6a5.38,5.38,0,0,1-.38,2c2.25-3.7-.72-.64,1.69-4.75-2.17,5.39,2.07,1.13-.6,7.14.44.26,1.34-3,1.78-2.75L16,70.38l1.14-2c.13.49-.72,2.55-1.38,3.9,0-.19-.39.28-.53.35-.56,2.07,1.4-.09,1.23.59l.06-1.2c2-.86,2.43,2,5.28-.62l.52-1.23c2.05-1.74.05,1.68,1.59,1.18l-.19.26c.82-1.08,1.4-1.54,1.6-1.26-1,1.27-.94,3-2.07,4.33,2.22-1.85,1.45-1.6,4.43-5.67l-.89,2c1.16-1.67,1.68-2.6,2.45-2.84-1.31,1.47-1.27,3.17-2.9,5.16-1.24,4.84,3.85-3.52,1,3,3.38-5.18.7-3.5,1.59-4.52.72-1.9,2.56-3.85,2.61-3.13.27.31-3.15,7.26-2.26,7.6-.07-.07-.3.34-.37.26-.43,1.56,1.63-1.54.79.91,2-3.16.4.46,2.72-3.68l-1.29.55c1-.86,4.09-5.52,3.53-2.75A21.58,21.58,0,0,1,32.83,74c-.46,1.35.85-.59.38.79-2.34,4.14-1.43.4-3.62,3.33-.73,1.89,2.52-2.54-.17,1.85,3.46-5.57.42,1.17,3.38-2.91l-1.41,2.48c.31-.35,1.14-1.42,1.27-1.27l-2.07,3.07c2-2.51-.46,2.9.8,1.63-.95-.42,1.45-3.12,2.07-5.15,3-2.71-2.95,6.88-1.05,6.38-.36.25.2-1.85,1.1-2.86a10.44,10.44,0,0,1-.84,3.17c1.11-.06,1.3-2.64,2.5-4-1.4,3.19,1.1-1,2-1.77l-1.41,2.53c0,2.15,3.2-5.12,3-2.68L36.4,81.89l1-.65-1.71,2.82c1.68-1.86,1.53-1.22,1.54-.15.89-1.84,2.65-4.54,3.12-4.38-.56,1.66-1.52,2.3-.72,2.28-1,1.5-2.3,3.39-1.24.93-.5.81-1,1.5-1.52,2.3-.67,1.89.55.82.77.92a1.08,1.08,0,0,1,.11-.71l2.84-3a8.93,8.93,0,0,1-1.48,2.4c.33-.17,1.12-1.26,1.5-1.33-1.24,2-2.44,4.12-3.34,4.88l2.11-1.8a27.71,27.71,0,0,1-1.53,3.36c-.25,1.46,3.38-3.32,3.06-1.4a4.27,4.27,0,0,1,.84-.93C42,88.22,41,91,43.32,88.6l-1.77,3.85c1-.52,2.19-4.87,3.86-5.73,1.3-.8-1.6,3.23-2,4.36,1.38-1.65,4.12-5,2.92-1.77C45.76,89.89,45.93,89.26,45.6,89.43ZM56,93.6c-.36.49-1.35,2.08-1,.3C56.28,90.77,55.94,92.43,56,93.6Zm14.65-5.46c0,1.09-.27.69-.61-.37C70.17,87.42,70.35,87.44,70.66,88.14Zm21.89-32,0,.13C91.83,55.37,92.13,55.72,92.55,56.11Zm1.1.82a6.38,6.38,0,0,0-.57-1.06c.32.65.24.76,0,.65C93.5,57.16,93.82,57.58,93.65,56.93ZM40.19,55.81l-.24.73C39.28,57.13,39.72,56.51,40.19,55.81Z" transform="translate(-9.54 -40.15)"/><path class="cls-1" d="M69.56,93.34c-.1-.51-.16-1.09-.23-1.69A4.06,4.06,0,0,0,69.56,93.34Z" transform="translate(-9.54 -40.15)"/><path class="cls-1" d="M40.87,88.4s0,0,0,0l-.28.45Z" transform="translate(-9.54 -40.15)"/><path class="cls-1" d="M95,83.51a7.08,7.08,0,0,1-.85-1.26C94.37,82.9,94.67,83.43,95,83.51Z" transform="translate(-9.54 -40.15)"/><path class="cls-1" d="M93.65,51.22l.1.82c.07-.21.45.29.77.64A6.73,6.73,0,0,1,93.65,51.22Z" transform="translate(-9.54 -40.15)"/><path class="cls-1" d="M106.34,64.31c-.15-.33.09-.11-.06-.44l-.78-1.1C105.33,63,105.78,64,106.34,64.31Z" transform="translate(-9.54 -40.15)"/><path class="cls-1" d="M99.06,59.18c1.32,2,1.1,1.2,1.09.67,0,0,0,0,0,0C98.34,57,98.71,58.07,99.06,59.18Z" transform="translate(-9.54 -40.15)"/><path class="cls-1" d="M100.16,59.74c0-.14.06-.24.19-.19C99.64,58.39,100.11,59.36,100.16,59.74Z" transform="translate(-9.54 -40.15)"/><path class="cls-1" d="M93.46,55.18c.42.49-1.5-2.73-.94-1.9C91.08,50.53,93.72,56.9,93.46,55.18Z" transform="translate(-9.54 -40.15)"/><polygon class="cls-1" points="94.01 25.68 92.31 23.2 93.47 25.34 94.01 25.68"/><path class="cls-1" d="M100.36,65.2l.84.47a2.87,2.87,0,0,1-.42-.94C100.47,64.79,99.89,64.44,100.36,65.2Z" transform="translate(-9.54 -40.15)"/><path class="cls-1" d="M100.78,64.73c.16,0,.25-.17.06-.63A.73.73,0,0,0,100.78,64.73Z" transform="translate(-9.54 -40.15)"/><polygon class="cls-1" points="93.92 26.8 93.47 26.34 93.06 26.34 93.92 26.8"/><path class="cls-1" d="M95.6,67.14l-.08,1c.4,1,.82,1.45.81,1A6.39,6.39,0,0,0,95.6,67.14Z" transform="translate(-9.54 -40.15)"/><path class="cls-1" d="M100.84,73.7a15.85,15.85,0,0,1-1.29-1.91l1.72,3.31Z" transform="translate(-9.54 -40.15)"/><path class="cls-1" d="M99.75,75.24c.42,1,.57,3,1.13,2.49C100.48,76.79,100.61,75.77,99.75,75.24Z" transform="translate(-9.54 -40.15)"/><polygon class="cls-1" points="80.64 34.29 80.74 34.19 78.35 28.57 80.64 34.29"/><path class="cls-1" d="M89,90.7c1.13,1.12-1.27-3.56-.06-2.08-.4-1.39-1-1.21-1.31-2.42C87.86,87.76,87.36,87,89,90.7Z" transform="translate(-9.54 -40.15)"/><path class="cls-1" d="M87.65,86.2c0-.25-.09-.54-.17-.93A5.4,5.4,0,0,0,87.65,86.2Z" transform="translate(-9.54 -40.15)"/><polygon class="cls-1" points="9.2 1.33 9.37 0 8.73 1.97 9.2 1.33"/><path class="cls-1" d="M16.07,45.23l1.58-3.56-1.73,3.07C16.07,44.63,16.38,44.4,16.07,45.23Z" transform="translate(-9.54 -40.15)"/><path class="cls-1" d="M55.59,102.59l.28-.93c.15-1.1,0-1.27-.24-1.62Z" transform="translate(-9.54 -40.15)"/><polygon class="cls-1" points="38.36 54.24 38.47 54.4 39.79 51.09 38.36 54.24"/><path class="cls-1" d="M40.57,95.23c.08.21.67-.35.75-.13C40.66,95.44,42.76,91.42,40.57,95.23Z" transform="translate(-9.54 -40.15)"/></svg>