<svg id="Calque_1" data-name="Calque 1" xmlns="http://www.w3.org/2000/svg" viewBox="0 0 37.1 301.8"><defs><style>.cls-1{fill:#df3a3b;}.cls-2{fill:none;stroke:#e6696a;stroke-miterlimit:10;}</style></defs><title>Sans titre - 2</title><path class="cls-1" d="M57.19,77.44c.05-.44-.37-.29-.44-.36C56.81,77.82,57.3,77.43,57.19,77.44Z" transform="translate(-29.52 -77.08)"/><polygon class="cls-1" points="28.36 7.75 28.19 7.61 28.57 8.71 28.36 7.75"/><path class="cls-1" d="M57.56,91.69c.75-.61,0-2.49.31-3.7l.18-.2-.55-.58A25.27,25.27,0,0,1,57.56,91.69Z" transform="translate(-29.52 -77.08)"/><path class="cls-1" d="M55.84,95.28c.28-.22.19.8.13-.85,0,.08-.06.1-.08.15S55.87,94.93,55.84,95.28Z" transform="translate(-29.52 -77.08)"/><path class="cls-1" d="M55.89,94.58c0-.72-.26.46,0,0Z" transform="translate(-29.52 -77.08)"/><path class="cls-1" d="M55.87,97.92l-.2-1c-.17.19-.25,1-.35.71C55.4,98.65,55.57,98.46,55.87,97.92Z" transform="translate(-29.52 -77.08)"/><path class="cls-1" d="M56.34,98.85l-.08-.5C56.19,98.44,56.16,98.57,56.34,98.85Z" transform="translate(-29.52 -77.08)"/><path class="cls-1" d="M56.1,97.3l.16,1c.13-.13.36-.13,0-.48C56.42,98,56.23,97.75,56.1,97.3Z" transform="translate(-29.52 -77.08)"/><path class="cls-1" d="M56.24,96.71c.18-.53.32-1.21.51-.24C56.75,94.64,56.24,94.88,56.24,96.71Z" transform="translate(-29.52 -77.08)"/><path class="cls-1" d="M58.28,92.08l.25-.7-.21-.63C58.42,91.06,58.06,92.11,58.28,92.08Z" transform="translate(-29.52 -77.08)"/><path class="cls-1" d="M55.15,103.82c.15.07.43-.29.63-.35l-.13-.71C55.52,103.11,55.38,103.79,55.15,103.82Z" transform="translate(-29.52 -77.08)"/><path class="cls-1" d="M55.78,103.47l.19,1.07C56.06,103.6,56,103.42,55.78,103.47Z" transform="translate(-29.52 -77.08)"/><polygon class="cls-1" points="27.6 21.99 27.16 20.23 27.59 22.32 27.6 21.99"/><polygon class="cls-1" points="25.36 30.76 25.05 30.14 25.51 31.23 25.36 30.76"/><path class="cls-1" d="M54.75,110.5c-.26-.46-.53.57-.68.09a6.29,6.29,0,0,0,.4,1.93A4,4,0,0,1,54.75,110.5Z" transform="translate(-29.52 -77.08)"/><path class="cls-1" d="M54.73,113.47a6.83,6.83,0,0,0-.26-1A3.37,3.37,0,0,0,54.73,113.47Z" transform="translate(-29.52 -77.08)"/><path class="cls-1" d="M55.78,106.32a1.18,1.18,0,0,0-.49.8l.46-.38Z" transform="translate(-29.52 -77.08)"/><path class="cls-1" d="M55.76,106.72v0l-.08.89Z" transform="translate(-29.52 -77.08)"/><path class="cls-1" d="M55.79,106.22v.1S55.84,106.26,55.79,106.22Z" transform="translate(-29.52 -77.08)"/><path class="cls-1" d="M56.57,101.8c.21.64.39,1.94.82.72C57.13,102.05,56.88,102.76,56.57,101.8Z" transform="translate(-29.52 -77.08)"/><path class="cls-1" d="M56.35,105.74l.17-1.11c-.11,0-.29.2-.39-.11Z" transform="translate(-29.52 -77.08)"/><polygon class="cls-1" points="26.94 29.22 26.84 28.66 26.77 29.07 26.94 29.22"/><path class="cls-1" d="M55.26,111.59a5.32,5.32,0,0,1,.12,1.62,14.12,14.12,0,0,0,.26-1.91C55.51,111.2,55.29,110.91,55.26,111.59Z" transform="translate(-29.52 -77.08)"/><path class="cls-1" d="M55.55,109.23v.11C55.6,109.27,55.62,109.22,55.55,109.23Z" transform="translate(-29.52 -77.08)"/><polygon class="cls-1" points="25.41 42 25.5 41.91 25.43 41.88 25.41 42"/><path class="cls-1" d="M55.73,111.2a1.53,1.53,0,0,0-.08-1,8.89,8.89,0,0,1,0,1.15C55.7,111.34,55.74,111.35,55.73,111.2Z" transform="translate(-29.52 -77.08)"/><path class="cls-1" d="M54.8,115.12a6.88,6.88,0,0,0,.3-.81C55,114.55,54.7,115,54.8,115.12Z" transform="translate(-29.52 -77.08)"/><path class="cls-1" d="M55.43,109.49v-.07C55.32,109.57,55.36,109.55,55.43,109.49Z" transform="translate(-29.52 -77.08)"/><path class="cls-1" d="M55.43,109.49a3.93,3.93,0,0,0,.22.66,4.77,4.77,0,0,0-.09-.81A.61.61,0,0,1,55.43,109.49Z" transform="translate(-29.52 -77.08)"/><path class="cls-1" d="M57.52,121.07c-.39-.11-.65-1.41-.14-2.46-.22-1.1-1.56-.5-2.37.38.17.05.33.06.48,1.18.24-.37.7-2.41,1-1.45.08,1.48-.24,1.19-.5,1.88.54-.56.56,1.92,1.31,1.66l-.15-1.3C57.24,120.94,57.39,121.42,57.52,121.07Z" transform="translate(-29.52 -77.08)"/><path class="cls-1" d="M55.22,116.89l0-.46a5.23,5.23,0,0,1-.65,1.53c.13.77.26.94.39,1l.23-2.23Z" transform="translate(-29.52 -77.08)"/><path class="cls-1" d="M55.35,114.4c.41.38.51,1.49,1,.85.07-1.33-.28-1-.41-1.77-.06,2.16-.19-.63-.55.9a7.81,7.81,0,0,1,0-1.17c-.08.39-.18.76-.28,1.1l0,0h0c.06-.09.09-.12,0,0s0,0,0,.05a.33.33,0,0,1,.15.11c-.13.61-.12.09-.15-.11,0,0,0,0-.06,0h0l.07,2.17A11,11,0,0,0,55.35,114.4Z" transform="translate(-29.52 -77.08)"/><path class="cls-1" d="M58.25,103.72c0,.07-.07.06-.11.07S58.22,104,58.25,103.72Z" transform="translate(-29.52 -77.08)"/><path class="cls-1" d="M57.93,104.6a1.18,1.18,0,0,1-.13-.81c.15-.44.2,0,.34,0-.09-.32-.24-1.1-.51-.15l0,.16c-.2.86-.81,1.94-.86,1.78A3.12,3.12,0,0,0,57.93,104.6Z" transform="translate(-29.52 -77.08)"/><path class="cls-1" d="M56.76,109.57l.09,1.81.43-.89-.22,0C57.22,109.51,56.93,109.71,56.76,109.57Z" transform="translate(-29.52 -77.08)"/><polygon class="cls-1" points="25.18 42.19 24.75 41.91 25.3 43 25.18 42.19"/><polygon class="cls-1" points="25.05 44.52 24.66 44.4 24.85 45.03 25.05 44.52"/><path class="cls-1" d="M51.91,253.31l.14.52A2.57,2.57,0,0,0,51.91,253.31Z" transform="translate(-29.52 -77.08)"/><path class="cls-1" d="M51.7,249.48l-.2-.08C51.62,249.57,51.7,249.64,51.7,249.48Z" transform="translate(-29.52 -77.08)"/><path class="cls-1" d="M48.19,178.65c-.46.72-1.13,1.51-.68,1.47l.46-.18A3.12,3.12,0,0,1,48.19,178.65Z" transform="translate(-29.52 -77.08)"/><path class="cls-1" d="M48.27,218.23l.13-.22-.41-.52Z" transform="translate(-29.52 -77.08)"/><path class="cls-1" d="M50.07,218.77l-.27,1A5.16,5.16,0,0,0,50.07,218.77Z" transform="translate(-29.52 -77.08)"/><path class="cls-1" d="M53.63,274.19l.47.6C54.05,273.82,53.85,274.26,53.63,274.19Z" transform="translate(-29.52 -77.08)"/><path class="cls-1" d="M52.43,145.42A8,8,0,0,0,52,147C52.32,146.27,52.77,145.67,52.43,145.42Z" transform="translate(-29.52 -77.08)"/><path class="cls-1" d="M47.22,252.08c.1.31.2.45.29.43C47.42,252.18,47.32,252,47.22,252.08Z" transform="translate(-29.52 -77.08)"/><path class="cls-1" d="M51.78,148.94c0-.11.09-.22.14-.34A7,7,0,0,1,52,147,2.57,2.57,0,0,0,51.78,148.94Z" transform="translate(-29.52 -77.08)"/><path class="cls-1" d="M50.22,350.33c0,.05,0,.12-.07.16S50.22,350.44,50.22,350.33Z" transform="translate(-29.52 -77.08)"/><path class="cls-1" d="M45.68,372.38c-.06-.22-.1-.58-.15-.92A3.4,3.4,0,0,0,45.68,372.38Z" transform="translate(-29.52 -77.08)"/><path class="cls-1" d="M53.55,130.94c0-.5,0-.09,0,0Z" transform="translate(-29.52 -77.08)"/><path class="cls-1" d="M55.48,128.69c0,.11.1.2.2.22A.39.39,0,0,1,55.48,128.69Z" transform="translate(-29.52 -77.08)"/><path class="cls-1" d="M53.89,154.16v0C54,154.07,54,154.09,53.89,154.16Z" transform="translate(-29.52 -77.08)"/><path class="cls-1" d="M53.82,130.21a4.15,4.15,0,0,0-.19.62A5.73,5.73,0,0,0,53.82,130.21Z" transform="translate(-29.52 -77.08)"/><path class="cls-1" d="M53.6,130.29l.09-.42C53.62,129.8,53.57,129.85,53.6,130.29Z" transform="translate(-29.52 -77.08)"/><path class="cls-1" d="M53.51,131.63a4.8,4.8,0,0,1,.12-.8c0,.1-.07.14-.08.11Z" transform="translate(-29.52 -77.08)"/><path class="cls-1" d="M52.91,309.61s0,.07,0,.1C53,310.22,53,310,52.91,309.61Z" transform="translate(-29.52 -77.08)"/><path class="cls-1" d="M51.27,192s0,0,0-.06l0,.07Z" transform="translate(-29.52 -77.08)"/><path class="cls-1" d="M51.43,193.78a1.84,1.84,0,0,1-.2-1.78l-1.3.47Z" transform="translate(-29.52 -77.08)"/><path class="cls-1" d="M52.6,262.46l.31-1.28c.73,1.47.58,2.58,1.05,1.37-1.36-.09-.44-4.85-1.8-4.94l.23-.84c0,.23.08.27.09.5.55-1.64-1.06-1.13-1-3.21.06-.72.23-1.24.42-.75l-.43-1.59c0-.46.24-.36.24.1l-.26-2.44,0,0a11.66,11.66,0,0,1-.77-1.49c.17-.63.16.31.32.14l-.4-1.34c.33-.57.73.54.73,1.47,1.28-1.34-.4-1.1.24-3.87l.24,1.27c.72-.87.39-1.85.79-3.31-.23.35-1,2.95-1.47,1.5A3,3,0,0,0,51,242c.48,0,.32-.8.24-1.77l.64,0c-.23-1-.55-.94-.87-1.54a1.77,1.77,0,0,1,.91-1.73c0-1.86-.74,1.33-1-.87a11.5,11.5,0,0,0-.59-4.49c.19-1.09.4.18.57-.22l-.53-.94c0-.24.16-.16.24-.13-.22-.8-.64,0-.85-1.31-.71-.33,1-2.65.12-4.21.17-.39.39.18.64.06a19.12,19.12,0,0,0-1.14-3.62l.41-1.52c-.47,1.12-1-.3-1.53-1.55a9.18,9.18,0,0,0-.52,1l-.36-2c.1-.24.33,0,.6.29-.06-.14-.11-.27-.16-.37.23-.71.6-.34,1,.17l-.39.72c.4.49.83,1,1.2.84a1.93,1.93,0,0,1-.17-.65c.1.13.2.21.26.15s-.08-.27-.24-.6l.71-.45-.28-.11c.15-.87.26-1.73.44-2.59-.68-1.86-1.71-3.5-2-6.48.51.75.86.19,1.47.24-.67.79.24,2.3.08,3.82.08-.8.37-.62.47-.41L49.85,209c.5.08.39-.57.61-1.27-1,.51-.61-2-.84-3.17.34-.06.67.22.52,1.57.83-1.46-1.08-2-.37-3.41,0,.33-.07.5.1.64-.26-.78.07-2.66.34-2.2v.33c.19-2.18.42-6.65-.39-7.05A4.57,4.57,0,0,1,51,195c-.85-1.37-1.68-2.76-2.51-4.16.69.41,2.55-.74,2.79,1.11a4.69,4.69,0,0,0,.18-2.26c-.13.34-1.13.78-1.15.29a12.15,12.15,0,0,0,1.38-2.45c-.21.51-1.29-.2-1.16-1,.15.15,1.13.05,1.21.37l-.88-2.21c.14.54.93.19,1.3-.24-.25.2.23-1.8.18-2.37l-.36.86c.45-2.34-1.3-2.53-1-4.87.2.32,1.33.88,1.62-.29-.5-.62-2.44-2.77-2.61-4.91l.38-.35-.17-1.65a32.81,32.81,0,0,1,2.69,5.73c.37-.85.42-.19.56-1.52.36-.43.37.78.34,1.17l.59-3.05c-.69.05-.36-2.45-.93-2.4l.25,3.43c-.68.06-1.64-2.18-1.24-4.35.34-.52,1.14.57,1.36.56a4.72,4.72,0,0,1,0-2.31l.23,1c.41-1.18-.62-2.1.21-3.48.11-.5,1-1.4.67-1.54-.87.73-3.24.58-3.74,0a21.81,21.81,0,0,1,1.51-3.08c.71-.76,1.27,1.43,1.87.78-.18-.05-.34-.54-.39-.74.22-.51.53.29.6-.87-.65-.28.35-2.34-.51-.62,0-1.15.29-1.18.43-2.51-.49.36-1.34-1.38-1.4-2.53.16.09.42-.14.54-.25.32-2.31.79-3.51,1-5.67.19-.18.5-1.2.75-.73a2.73,2.73,0,0,1-.23-1.3c.73-1.22-.07,1.5.74.59-.38-.13-.35-1.78-.49-2.76-.64.23-.36,2.18-.22,3.16-.84-.09-1.53-1.84-1.68-4.14,0-1.81.63-.72.54-1,.5-3.35-1.16-3-.28-5.75.65-1.06,1.07,0,1.48-.15.06,1.48-.56,2.21-.64,3.2l.38-1.19a3.92,3.92,0,0,1-.05,2c.58-.88.68-5.68,1.36-8.24-.14-.48-.25-1.3-.5-.94V132c-.5.71-.45-1.61-.75-.58a8.66,8.66,0,0,1-.18-4l.63-.24c-.18,0-.45,1-.3,1.44-.22-.67,1-2.31.3-3.09l-.52,1c-.21-1.13-.74-2.56-.43-3.92-.66.58,0,.33-.75,1.24,1-.77-.34,3.52.7,2.24-.91.93-.5,1.71-1.32,3,.21,0,.43-.43.23.72a1.73,1.73,0,0,1,.15.27l0,.07,0-.06c0,.06,0,.06,0,0a1.31,1.31,0,0,1,.36-.56c.41.61.22,2.45.4,3.09-.16.68-.2-.3-.45.05l.27,1c-.45.05-.92,1.75-1,.11l-.16,1.45a6,6,0,0,0-.44,2.74c-.16.67.32,1.78,0,1.15l0,2.3h-.11c-.29,2.24.24,4.7-.85,7.17a9.92,9.92,0,0,1-.2,2.82l-.42.2c0,1-.72,2.86-.38,3.32-1.16.92-.8,4.67-1.2,6.35l.49.13a23.51,23.51,0,0,0-.17,3.79l.46,0c.2,1.3-.74,3.19-1,5.18-.15-.15,0-.65.11-1-1.31,2.25.08,5.11-.92,7.18a2.17,2.17,0,0,1-.17,1.31.61.61,0,0,0,0-.14l0,.22c-.11.23-.23.46-.33.72a3.14,3.14,0,0,0,.31-.6,11.32,11.32,0,0,0,0,1.68l-.51.21v.15c-.25.58.17.51.57.23a3.69,3.69,0,0,0,.19.85c-.83.4.07,1.65-.83,2.23.35.47,0,3.15.77,3.57-.11,0-.18.19-.16-.15a4.21,4.21,0,0,0-.16,2l-.64.23.68,1.59c-.46.88-.71,1.24-1.1.29.53,2.27.11,1.81.67,3.75l-.38-.13c0,.68.4,1.79,0,2.17-.44.72-.58,2.58-.7,4.73a49.21,49.21,0,0,1-.67,6.53c1.18-.72-.55,1.78.35,1.95-.28.22-.45.76-.67.13.23,2-.5,3,.24,4.33-.28.22-.4-.43-.57-.23.06.16.23.63.06.84s-.22-.29-.34-.61c0,2,.9,2.23,1.69,2.38a2,2,0,0,0,.21,2.26c-.25.35-.52,1-.63-.3,0,.7-.35,4.3.29,4.36-.17.22,0,1,0,1.16,0,1.58,0,1.72,0,3.26l.09-.43c.79.59.21,1.28.34,2.53l-.08,0c-.48,2.88.28,1.23-.24,4.07l.48-.18c1,.23-.5,2.52,0,4.14l.25-.6c.39.87-1.29,2.56-1.38,3.46-.08.2-.16-.3-.24-.57-.49,2.38.64.27.88,2-.32.33-.88-.38-.88.8-.24.61,1.28,3.36.72,5,.24-.37.48-.74.72.07.16,1.23-.78,3.41.1,4.49-.06.16-.12.22-.19.23.27.94.54,3.07,1,3.61-1.6,1,1.17,5.85-.36,5.92l.27,2.92-.16-.07A4.84,4.84,0,0,0,49.1,268c-.08.44-.24.13-.33.1a8.78,8.78,0,0,0,.83,5.25l-.48.26c.32.61-.57,4,.14,6.62A.45.45,0,0,1,49,280c.76,3-1.08,7.24.78,8.27l.52,2c0-2.57.8.36,1.06-.71.15,1-.48,2.63-.6,1.39l.09-.19c-.95-.43-.27,3.19-.91,3.14.18,5-.36,10-.47,14.66l.75-.53-.09,1.64c-.18.43-.59.57-.53-.6-.43.6.3,2,.45,2-.36,2.29-.82-.92-.86-.22l0,1,.09-.21a3.74,3.74,0,0,1,.51,2.27c-.17.88-.46.44-.5.79-.05,0-.08.11,0,.53l-.18,2.06.63-.79c.23.93-.15,1.94.56,1-1.09,1.34-.82,7.69-1.28,8.52a11.79,11.79,0,0,1,0,4.14c.15-.38.82-.54.61.8-.64-.32-.84.28-1,1.09a4.59,4.59,0,0,1-.92,2.29c.77-.9-.35,3.84.76,2.44-.26,1.11-.51,0-.94.81.15,2.75-1.15,5.86-1.41,9.23.17.08.51-.45.68.3l-1.09,1.66c0,.68.94.73.2,1.87.16-.15.41-.38.42.07a43.2,43.2,0,0,0-.9,10.08,90.5,90.5,0,0,1-.28,10.38c.22-1,.33-.36.44.35,0-.47.43,0,.65-.17-.1,1-.19,1.95-.22,2.94.38.2.53.95.67,1.68s.36,1.42.7,1.49l-.33-.86c.51.51.81,0,1.12-.62s.66-1.36,1.14-1.36c-.53-.56-.4-1.45-.27-2.43a3.92,3.92,0,0,0-.48-3c.16-.48.34.37.54.1a2.84,2.84,0,0,1-.5-2.33l.12.12c-.25-3.35.14-4.81.57-8.56l-.49.25a4.15,4.15,0,0,1,.41-1.35c-.66-1-.17,2.29-.91,1.4.5-.52.61-2,.72-3.35s.29-2.75.88-3.06c.14-1.25-.58.32-.44-.94l.33-.3-.35-.36c.15-.82.57-1.19.82-1.19a4.19,4.19,0,0,0,0,.79c.46-1,.24-3,.4-3.37l-.33,1.18c.14-3.46,1.13-7.62,1-11.05l-.25.22c-.07-2.61.52-2,.68-4.86l0,.11a5.9,5.9,0,0,1-.1-2.13c.19.74.64-1.3.84-.33-.17-2.84-.21-1.42-.86-3.34l.41-.39a3.48,3.48,0,0,1-.4-2.15c.2,1.19.65-.85.94.48,1-2.92-.53-4.47.75-5.76-.94-1.43-.72,2.54-.9,1.76-.37.62-.69-1.17-.53-2.1s1.43-1.54,1.5-3.93c0,.23.07.25.06.49.29-.88-.3-1.77.15-2.85-.6-.64.08-1.43-.71-1.63l.12,2.2c-.17-1.25-1.06-2.44-.55-4.47a4.2,4.2,0,0,1,.45,1.2c.25-.6-.12-1.16.13-1.77.79.19.1,2.66.67,4,.35-.64-.5-2.54.33-1.85-1.07-1,.24-2.36-.61-4l.48.11a4.11,4.11,0,0,1-.29-1.27l.62.87c-.53-1.32.46-2.54.18-3.8,0,2.64-.58.59-.92,1.71-.64-3.25,1.25-1.87,1-5.52.08.49-.28,1.86-.5,1.09a7.33,7.33,0,0,1,.5-2c-.15-2.41-.48.38-.79-.65.56-.82-.26-1.17-.47-2.22l.48,0c.25-2.75-1-.7-.7-3.18l.69,1-.19-1.28.55.25a6.49,6.49,0,0,1-.26-3.2c-.32.33-.88-.15-.94-1.36.25-.84.47.44.34-1.27a1.19,1.19,0,0,1,.3,1.55c.16.07.31.37.47.45a8.24,8.24,0,0,0,0-2.87,2.59,2.59,0,0,1-.08.68l-.77-2.47c.17-.4.33-.09.48.21-.07-.5-.3-.84-.39-1.58.4.17.81.11,1,1.15L53.68,280c.16-.17.41-1.24.57-.94.16-1.33-.93-3.19-.71-4.95a1.3,1.3,0,0,1-.24-.63c0-1.64.39-3.12-.26-5l.63-1.14c-.25-1.51-.79,1.54-1.21-1-.33-1.77.56-.7.72-1.34a5.68,5.68,0,0,1-.76-4A9.51,9.51,0,0,1,52.6,262.46Zm-1.42-18.65c.12.35.47,1.05.2,1.33C50.8,244.76,51.05,244.43,51.18,243.81Zm-2-28.33a1.43,1.43,0,0,1-.09,1.16A3,3,0,0,1,49.18,215.48Zm4.24-79.1s0,0,0,0C53.17,137.2,53.28,136.93,53.42,136.38Zm.38-1.65c0-.17-.12-.17-.2-.1.11.12.08.5,0,.92C53.74,135.45,53.85,135.24,53.8,134.73ZM49.51,314.8l.14-.32C49.76,315.22,49.65,315,49.51,314.8Z" transform="translate(-29.52 -77.08)"/><path class="cls-1" d="M49.86,218.7a.42.42,0,0,1-.26.15C49.68,219,49.78,219,49.86,218.7Z" transform="translate(-29.52 -77.08)"/><path class="cls-1" d="M53.54,274.08v.06a.2.2,0,0,0,.09.05Z" transform="translate(-29.52 -77.08)"/><path class="cls-1" d="M55,161.05a1.53,1.53,0,0,1-.33.63C54.73,161.72,54.85,161.57,55,161.05Z" transform="translate(-29.52 -77.08)"/><path class="cls-1" d="M53.79,125.81l0,1.08a2.17,2.17,0,0,1,.24-.94C54,126,53.77,126.15,53.79,125.81Z" transform="translate(-29.52 -77.08)"/><path class="cls-1" d="M57.53,116.76c0-.16,0-.33,0-.49l-.22,0C57.24,117,57.39,117.45,57.53,116.76Z" transform="translate(-29.52 -77.08)"/><path class="cls-1" d="M55.48,125c.41,0,.33-.73.32-1.49a.66.66,0,0,1,0,.14C55.25,123.34,55.36,124.15,55.48,125Z" transform="translate(-29.52 -77.08)"/><path class="cls-1" d="M55.8,123.3a4,4,0,0,1,.05-.7C55.63,122.5,55.78,122.88,55.8,123.3Z" transform="translate(-29.52 -77.08)"/><path class="cls-1" d="M53.73,132.59c.14-.35-.5-.27-.31-.46C52.94,131.69,53.82,134.56,53.73,132.59Z" transform="translate(-29.52 -77.08)"/><polygon class="cls-1" points="27.35 47.39 26.82 47.62 27.19 48.08 27.35 47.39"/><path class="cls-1" d="M56,130.37l.25-1.19c-.09,0-.12-.15-.14-.34C56,129.58,55.82,130.38,56,130.37Z" transform="translate(-29.52 -77.08)"/><path class="cls-1" d="M56.08,128.84a3.11,3.11,0,0,0,0-1A7.8,7.8,0,0,0,56.08,128.84Z" transform="translate(-29.52 -77.08)"/><polygon class="cls-1" points="27.35 49.05 27.22 49.39 27.11 50.24 27.35 49.05"/><path class="cls-1" d="M54.59,143.24v1.32c.16.15.3-.19.29-.69C54.79,143.55,54.77,143.05,54.59,143.24Z" transform="translate(-29.52 -77.08)"/><path class="cls-1" d="M56.37,139.42c-.14.35-.25.36-.44.54l.61.11Z" transform="translate(-29.52 -77.08)"/><path class="cls-1" d="M56.11,143.26c.16.15.29,2,.43.29C56.38,143.4,56.38,142.07,56.11,143.26Z" transform="translate(-29.52 -77.08)"/><polygon class="cls-1" points="23.49 85.78 23.52 85.44 22.51 85.36 23.49 85.78"/><path class="cls-1" d="M53.2,180.46c.43-1.51-.58-.44-.11-1.79-.19-.4-.39,1.1-.55.71C52.68,180.34,52.48,180.81,53.2,180.46Z" transform="translate(-29.52 -77.08)"/><path class="cls-1" d="M52.54,179.38c0-.16,0-.32-.09-.5A2.37,2.37,0,0,0,52.54,179.38Z" transform="translate(-29.52 -77.08)"/><polygon class="cls-1" points="16.29 299.17 16.34 300.24 16.51 299.5 16.29 299.17"/><path class="cls-1" d="M47,378l-.57.4.72.46C47.09,378.66,46.92,378.23,47,378Z" transform="translate(-29.52 -77.08)"/><path class="cls-1" d="M52.33,241l-.16-.07c-.16.16-.16.4-.16.86Z" transform="translate(-29.52 -77.08)"/><polygon class="cls-1" points="23.1 177.45 23.1 177.22 22.54 177.69 23.1 177.45"/><path class="cls-1" d="M54.07,265.86c0-.46-.17-1-.17-1.47C54.07,265.4,53.34,266,54.07,265.86Z" transform="translate(-29.52 -77.08)"/><path class="cls-1" d="M29.84,356.85c0-.05-.27.27-.32.32A1.23,1.23,0,0,0,29.84,356.85Z" transform="translate(-29.52 -77.08)"/><polygon class="cls-1" points="1.39 279.46 1.27 279.58 1.62 279.33 1.39 279.46"/><path class="cls-1" d="M31.3,356.91c.45-.55-.22-.05-.12-.3l.1-.13-.42.39C31,356.89,31.38,356.71,31.3,356.91Z" transform="translate(-29.52 -77.08)"/><path class="cls-1" d="M30.46,358.23c.18-.21.21-.13,0-.1l0,.06S30.45,358.2,30.46,358.23Z" transform="translate(-29.52 -77.08)"/><path class="cls-1" d="M30.43,358.19c-.05,0-.13.19,0,0Z" transform="translate(-29.52 -77.08)"/><path class="cls-1" d="M30.73,358.25l-.22.13c-.1.13-.08.2-.18.27C30.48,358.6,30.58,358.47,30.73,358.25Z" transform="translate(-29.52 -77.08)"/><path class="cls-1" d="M31.14,357.92,31,358S31,358.05,31.14,357.92Z" transform="translate(-29.52 -77.08)"/><path class="cls-1" d="M30.83,358.07,31,358c.07-.09.23-.26-.08,0C31.11,357.85,31,358,30.83,358.07Z" transform="translate(-29.52 -77.08)"/><path class="cls-1" d="M30.87,358a.67.67,0,0,1,.33-.38C31,357.56,30.7,357.94,30.87,358Z" transform="translate(-29.52 -77.08)"/><path class="cls-1" d="M31.83,356.39l.1-.19-.2.14C31.83,356.27,31.68,356.56,31.83,356.39Z" transform="translate(-29.52 -77.08)"/><path class="cls-1" d="M30.81,358.84c.11-.11.26-.31.39-.46l-.16.09A1.43,1.43,0,0,1,30.81,358.84Z" transform="translate(-29.52 -77.08)"/><path class="cls-1" d="M31.2,358.38l.24-.13C31.41,358.18,31.31,358.26,31.2,358.38Z" transform="translate(-29.52 -77.08)"/><polygon class="cls-1" points="2.18 280.28 1.7 280.58 2.2 280.29 2.18 280.28"/><polygon class="cls-1" points="1.5 281.99 1.23 282.21 1.65 281.88 1.5 281.99"/><path class="cls-1" d="M31.21,359.16c-.23.19-.31.39-.46.49a1.63,1.63,0,0,0,.48-.27C31.1,359.43,31.09,359.38,31.21,359.16Z" transform="translate(-29.52 -77.08)"/><path class="cls-1" d="M31.51,359.19l-.28.19A2.78,2.78,0,0,0,31.51,359.19Z" transform="translate(-29.52 -77.08)"/><path class="cls-1" d="M31.49,358.4a1.36,1.36,0,0,0-.25.36l.27-.33Z" transform="translate(-29.52 -77.08)"/><path class="cls-1" d="M31.52,358.42h0l0,.06Z" transform="translate(-29.52 -77.08)"/><path class="cls-1" d="M31.48,358.39h0S31.52,358.36,31.48,358.39Z" transform="translate(-29.52 -77.08)"/><path class="cls-1" d="M31.58,357.78a1.61,1.61,0,0,0,.63-.58A7.58,7.58,0,0,1,31.58,357.78Z" transform="translate(-29.52 -77.08)"/><path class="cls-1" d="M31.82,358v-.13a2.47,2.47,0,0,1-.28.28Z" transform="translate(-29.52 -77.08)"/><polygon class="cls-1" points="2.43 280.84 2.31 280.9 2.31 280.95 2.43 280.84"/><path class="cls-1" d="M31.68,358.8c.15-.11.19-.09.25-.08s0-.16,0-.19S31.63,358.78,31.68,358.8Z" transform="translate(-29.52 -77.08)"/><path class="cls-1" d="M31.62,358.59h0S31.67,358.54,31.62,358.59Z" transform="translate(-29.52 -77.08)"/><path class="cls-1" d="M32.25,359.05l0-.06,0,.05Z" transform="translate(-29.52 -77.08)"/><path class="cls-1" d="M32,358.46c0-.08-.06,0-.17.06a.16.16,0,0,1,.12,0S32,358.46,32,358.46Z" transform="translate(-29.52 -77.08)"/><path class="cls-1" d="M31.74,359.14a1.5,1.5,0,0,0,.11-.22C31.77,359,31.65,359.21,31.74,359.14Z" transform="translate(-29.52 -77.08)"/><path class="cls-1" d="M31.57,358.67h0C31.5,358.75,31.53,358.72,31.57,358.67Z" transform="translate(-29.52 -77.08)"/><path class="cls-1" d="M31.57,358.67a2.17,2.17,0,0,0,.22-.15.39.39,0,0,0-.14.06Z" transform="translate(-29.52 -77.08)"/><path class="cls-1" d="M34.28,357.19c-.28.28-.61.47-.38.11A11.77,11.77,0,0,0,32.3,359a1.57,1.57,0,0,1,.46-.34c.14-.18.22-.5.53-.7s0,.16-.14.35c.31-.38.61-.4,1.1-.94l-.25.11C34.08,357.39,34.23,357.29,34.28,357.19Z" transform="translate(-29.52 -77.08)"/><path class="cls-1" d="M32.22,358.84h-.06a2.2,2.2,0,0,1-.29.47,1.56,1.56,0,0,0,.38-.28l-.08-.16Z" transform="translate(-29.52 -77.08)"/><path class="cls-1" d="M32,358.74a4.94,4.94,0,0,0,.8-.73c-.1-.05-.31.21-.48.3.2,0-.2.13-.29.39a.19.19,0,0,1-.14,0,1,1,0,0,1-.08.2l0,0h0s.06-.07,0,0h0l.12-.11c0,.1-.07.09-.12.11l-.05,0h0l.29,0C32.17,358.78,32.13,358.76,32,358.74Z" transform="translate(-29.52 -77.08)"/><path class="cls-1" d="M32.92,356.59l-.07.08S32.93,356.61,32.92,356.59Z" transform="translate(-29.52 -77.08)"/><path class="cls-1" d="M32.79,356.83s-.17.15-.17.09.14-.15.23-.25a.85.85,0,0,0-.36.37l0,0a2.73,2.73,0,0,1-.41.64C32.38,357.35,32.56,357.13,32.79,356.83Z" transform="translate(-29.52 -77.08)"/><path class="cls-1" d="M32.5,357.71l.25,0,.21-.32-.16.16C32.81,357.38,32.63,357.59,32.5,357.71Z" transform="translate(-29.52 -77.08)"/><polygon class="cls-1" points="2.6 282.13 2.27 282.45 2.77 282.05 2.6 282.13"/><polygon class="cls-1" points="2.77 282.23 2.48 282.5 2.69 282.37 2.77 282.23"/><path class="cls-1" d="M43,364l.11,0Z" transform="translate(-29.52 -77.08)"/><path class="cls-1" d="M42.81,363.73l-.16.11A.45.45,0,0,0,42.81,363.73Z" transform="translate(-29.52 -77.08)"/><path class="cls-1" d="M35.41,362.51c-.24.29-.62.73-.29.42l.31-.3C35.34,362.65,35.36,362.6,35.41,362.51Z" transform="translate(-29.52 -77.08)"/><path class="cls-1" d="M39.41,363.18l.09-.1-.35.23Z" transform="translate(-29.52 -77.08)"/><path class="cls-1" d="M40.82,362.06l-.16.25A2.13,2.13,0,0,0,40.82,362.06Z" transform="translate(-29.52 -77.08)"/><path class="cls-1" d="M44.4,365.1l.39-.22C44.74,364.82,44.58,365,44.4,365.1Z" transform="translate(-29.52 -77.08)"/><path class="cls-1" d="M33.71,360.52c-.09.16-.11.23-.1.27C33.75,360.58,34,360.28,33.71,360.52Z" transform="translate(-29.52 -77.08)"/><path class="cls-1" d="M39.27,366.72a.76.76,0,0,0,.23-.13A.6.6,0,0,0,39.27,366.72Z" transform="translate(-29.52 -77.08)"/><path class="cls-1" d="M33.72,360.9l.05-.09c-.08,0-.15,0-.16,0C33.51,361,33.46,361.07,33.72,360.9Z" transform="translate(-29.52 -77.08)"/><path class="cls-1" d="M47.67,370.51l0,0S47.68,370.51,47.67,370.51Z" transform="translate(-29.52 -77.08)"/><path class="cls-1" d="M44.88,374.32s-.05,0-.07,0S44.81,374.32,44.88,374.32Z" transform="translate(-29.52 -77.08)"/><path class="cls-1" d="M32.67,360c-.05,0,0,0,0,0Z" transform="translate(-29.52 -77.08)"/><path class="cls-1" d="M33.75,358.61l.16-.14Z" transform="translate(-29.52 -77.08)"/><path class="cls-1" d="M35.94,359.32h0C36,359.26,36,359.27,35.94,359.32Z" transform="translate(-29.52 -77.08)"/><path class="cls-1" d="M32.77,359.77a.49.49,0,0,0-.06.13A.53.53,0,0,0,32.77,359.77Z" transform="translate(-29.52 -77.08)"/><path class="cls-1" d="M32.63,359.92v-.05C32.58,359.92,32.55,360,32.63,359.92Z" transform="translate(-29.52 -77.08)"/><path class="cls-1" d="M32.72,360s0,0,0-.07l0,.05Z" transform="translate(-29.52 -77.08)"/><path class="cls-1" d="M44.86,368.35l0,0C45,368.31,45,368.31,44.86,368.35Z" transform="translate(-29.52 -77.08)"/><polygon class="cls-1" points="9.95 283.21 9.93 283.23 9.92 283.24 9.95 283.21"/><path class="cls-1" d="M39.8,360.19c-.44.31-.42.24-.36.13l-.91.86Z" transform="translate(-29.52 -77.08)"/><path class="cls-1" d="M43.55,364.52l.25-.32c.58-.29.46-.08.84-.49-1.09.81-.36-.24-1.45.58l.19-.23s.06,0,.07,0c.43-.5-.84.52-.79.27A.62.62,0,0,1,43,364l-.35.1c0-.05.19-.19.19-.14l-.21-.1,0,0c-.18.11-.48.26-.61.32.12-.16.13-.07.25-.18l-.32.11c.25-.25.57-.39.58-.3,1-.91-.32.14.16-.52l.2,0c.56-.53.29-.42.59-.81-.18.18-.8.94-1.14,1.05.06-.09.07-.16-.19,0,.38-.3.25-.27.18-.32l.5-.39a3.7,3.7,0,0,0-.71.39c0-.11.37-.44.68-.72,0-.18-.56.58-.76.51.11-.25-.16-.16-.55,0,.12-.21.32-.23.44-.37l-.45.26a.86.86,0,0,1,.19-.17c-.2.08-.5.4-.7.43-.57.42.66-.82,0-.41a5.92,5.92,0,0,1,.49-.4,4.77,4.77,0,0,0-1,.46l.25-.36a4.38,4.38,0,0,1-1.25.87l-.36.4-.37.09a3.15,3.15,0,0,1,.47-.36l-.13.08a3,3,0,0,1,.74-.61l-.26.3a11.93,11.93,0,0,0,1-.71.47.47,0,0,1-.17.07l.21-.16s-.07,0-.21.11l.52-.48-.22.17.21-.45a8.34,8.34,0,0,1-1.92.93,12.19,12.19,0,0,0,1.13-.94c-.46.47.33,0,.31.15,0-.1.25-.28.34-.33l-.6.21c.39-.32.26-.28.38-.46-.74.68-.62.3-.91.43.25-.22.52-.43.54-.29.49-.58-1,.65-.59.14,0,0,0,.06.13-.05-.27.15-.19-.12,0-.28h0c0-.21-.36-.42-1,.12l.93-.76-2.36,1.64a20.59,20.59,0,0,1,2.21-1.85c0-.1.1-.22-.15-.12a6.53,6.53,0,0,1-.82.77,8.64,8.64,0,0,0,.7-.91,4.41,4.41,0,0,1-1,.79c.13-.11.84-.76.94-.82l-1,.62a6.6,6.6,0,0,0,.93-.87c-.16.16-.09-.12-.2-.08l-.15.23c0-.26-1.3.91-1.39.73a6.63,6.63,0,0,0,1.14-1.09,25.91,25.91,0,0,1-2.62,1.89l.22-.24-.36.16c.69-.53,2.19-1.59,2.8-2,.14-.23.27-.28.18-.34.2-.24.38-.27.42-.26l0-.33c-.48.46-.63.31-1,.7l.7-.27c-.49.47-1.52,1.17-1.55,1,.16-.21.9-.78,1.07-.94-.19.14-.45.18-.34,0l.32-.19c.12-.24-.77.49-.38,0,0-.06.55-.68.25-.41-.51.57-2.24,2.19-2.7,2.55,0,0,.4-.65.64-.94.39-.46,1.12-.91,1.46-1.3a4.64,4.64,0,0,1-.39.29c.08-.14.42-.38.3-.39-.51.45-.09-.18-.45.36-.21.06,0-.17-.06-.23a6.56,6.56,0,0,1-1.36,1,3.4,3.4,0,0,0,.34-.37c-.08-.18.07-.46,0-.59a2,2,0,0,1,.43-.51c-.11.07-.29.21-.34.19.35-.49.15,0,.6-.53a2,2,0,0,1-.72.39c-.42.45,0,.21.27.1a6.34,6.34,0,0,1-1.74,1.24c-.25.05.35-.42.24-.36-.08-.29-1.21.87-.93.28a10,10,0,0,1,1-1c.23-.06-.12.36,0,.41l.11-.25c.15-.1.3-.14.22,0,.3-.39-.25-.4-.08-.86a1.74,1.74,0,0,0-.47.36h.1c-.26.34-.51.33-.59.53-.28.15-.69.42-.61.16l.42-.45c-.12.13-.2.32,0,.21-.23.16.45-.72-.16-.19l-.24.36c-.28.16-.81.54-.75.33-.4.46.06,0-.38.52.57-.67.17.22.74-.51-.52.64-.14.35-.57.91.14-.14.25-.3.24-.16l.14-.11h0v0h0a1.66,1.66,0,0,1,.18-.24c.36-.3.46-.19.66-.32,0,.1-.18.15-.31.32l.31-.2c-.32.32-.44.62-.71.72l.06.09c-.13.23-.14.36,0,.27,0,.11.45-.25.16,0l.33-.07-.08.08c.08.16.79-.26.34.45.12,0,.27-.09.24.07l-.26.28c.15,0-.13.44.19.18-.71.78.08.43,0,.65l.37-.34c0,.09.21.05.44,0l.32-.31c.34-.18-.06.4.08.49-.13.1-.13.05-.07-.05-.62.82.81-.2.38.42.15-.07.13,0,.06.08h0v0l-.14.2a1.07,1.07,0,0,0,.14-.2.3.3,0,0,0,.22,0l-.34.34h0c-.1.15.19-.12.44-.39a1.34,1.34,0,0,0,.26-.14c-.55.55.28-.08-.3.51.33-.24.39,0,1-.56-.09.07-.12.12-.14.1s-.07.21.14.09l-.44.42.69-.45a2.56,2.56,0,0,1-.77.72c.66-.35.29-.07.93-.43l-.3.25c.05,0,.5-.25.28,0-.5.58.3.51,0,1.19.85-.8-.31.44.38-.13a2.26,2.26,0,0,1-.5.44c.3-.06-.19.46.46.05-.2.19-.33.24-.44.35.05,0,.21-.11.09,0a.76.76,0,0,1-.29.19c.13.09.79-.44,1.41-.94-.24.3-.17.3.27,0-.18.19-.36.4-.5.38s-.08.5.42.1c-.11.12,0,.09.08.06,0,.12,0,.16.14.22l.06-.1c.62-.45.19,0,.33,0l-.07.05c-.29.53.27-.09-.08.48l.36-.31c.82-.63-.35.54,0,.39l.19-.21c.32-.16-1,1-1,1.17a.36.36,0,0,1-.2.09c-.36.52.51-.37.71-.35-.25.23-.7.51-.69.62-.19.2,1-.48.6,0a1.82,1.82,0,0,1,.57-.43c.13,0-.62.81.09.38a1.07,1.07,0,0,1-.16.14,2.28,2.28,0,0,0,.81-.26c-1.27,1.06.93-.12-.29.8l.21.14-.13.09c0,.17.33,0,.65-.18a1.1,1.1,0,0,1-.25.2c-.12.36-.06.33.66,0l-.38.32c.26-.14-.45.71.15.53a1.76,1.76,0,0,1-.2.12c.62-.16-.78,1.26.74.27l.45-.13c0-.25.65-.43.85-.68.13,0-.33.49-.46.46l.07-.06c-.79.52-.13.4-.65.77.27.3.07.91.24,1.24l.58-.45,0,.13c-.12.13-.45.36-.48.27-.31.28.38-.07.51-.16-.14.32-.74.43-.72.48l.08,0,.06-.07c.28-.12.55-.29.58-.18s-.35.29-.36.32,0,.06,0,.05l0,.17.44-.38c.28-.1.06.15.56-.28-.77.65,0,.71-.18.94.41-.15.46-.06.48.08.09-.1.62-.47.61-.33-1.14.7-.37.48-1.13,1.08.49-.41.3.17,1-.43,0,.14-.42.28-.64.51.55-.11,0,.58.25.7a3.27,3.27,0,0,1,.61-.36l-.67.59c.1,0,.88-.51.42-.1.12-.09.29-.23.36-.23-.45.89,1.16.54.05,1.82.26-.23.31-.21.35-.17a5.28,5.28,0,0,1,.57-.35l-.45.53c.59-.31.16.17.72-.13h-.14c.69-.3,1.36-1,2.19-1.44-.78.34.93-.89-.2-.42.15-.13.28-.13.46-.26-.38.17-.48.17-.37,0l.09,0c-.23-.19,0-.51.12-.92l-.39.27c0-.09.13-.18.22-.27-.66.31.06.18-.65.54.77-.59-.24-.41.65-1-.05-.09-.44.32-.49.23l.23-.18L47,371c0-.09.32-.32.53-.46,0,0,.08,0,.11,0,.25-.26-.24-.15-.16-.24l-.1.18c-.38-.09-.24-.6-.9-.5l-.18.14c-.46.05.11-.28-.18-.37l.05,0c-.21.08-.34.09-.35,0,.25-.1.37-.38.65-.47-.5.05-.35.1-1.13.43l.29-.23c-.31.14-.46.23-.6.19.32-.1.43-.37.84-.52.54-.66-.88.16,0-.6-.91.49-.35.49-.57.57s-.69.35-.65.23,1-.84.89-1c0,0,.07,0,.08,0,.17-.21-.38.08-.07-.23-.55.31,0-.12-.7.32l.25,0c-.23,0-1.05.48-.77.09a2.92,2.92,0,0,1,.46-.2c.16-.17-.18,0,0-.17.66-.43.26.09.82-.17.25-.23-.59.16.15-.28-1,.55,0-.24-.76.12l.4-.26c-.08,0-.29.12-.3.08l.55-.3c-.49.22.26-.43,0-.35.14.17-.44.37-.67.64-.67.15.93-.84.57-1,.08,0-.15.29-.36.36a1.4,1.4,0,0,1,.33-.44c-.2-.11-.38.31-.67.41.44-.39-.25,0-.45.09l.4-.28c.12-.36-.86.54-.67.15l.59-.32-.2,0,.46-.3c-.4.14-.33.05-.27-.13-.26.22-.72.5-.79.43.19-.23.39-.24.26-.32.26-.15.59-.34.26,0l.39-.24c.23-.25,0-.19-.08-.23a.19.19,0,0,1-.05.11l-.67.23a1.31,1.31,0,0,1,.39-.27c-.06,0-.26.11-.33.09a3.25,3.25,0,0,1,.85-.5l-.47.09a4.32,4.32,0,0,1,.45-.42c.12-.22-.77.24-.61-.06a.56.56,0,0,1-.2.08c0-.16.31-.55-.22-.35l.51-.5c-.2,0-.64.63-1,.62s.44-.4.57-.56c-.33.15-1,.49-.61,0C43.54,364.43,43.48,364.52,43.55,364.52Zm-1.2-1c.1,0,.38-.19.17,0C42.07,363.81,42.26,363.63,42.35,363.49ZM40,362.41c.13-.09.1,0,0,.14C39.91,362.55,39.91,362.52,40,362.41ZM33.25,360l0,0C33.17,360.14,33.21,360.07,33.25,360Zm0-.24a.57.57,0,0,0-.14.13c.09-.07.12-.06.11,0C33.36,359.76,33.41,359.69,33.3,359.74Zm9.12,10.8.09-.1C42.66,370.41,42.54,370.47,42.42,370.54Z" transform="translate(-29.52 -77.08)"/><path class="cls-1" d="M40.65,362.19a1.66,1.66,0,0,1-.19.18A.81.81,0,0,0,40.65,362.19Z" transform="translate(-29.52 -77.08)"/><polygon class="cls-1" points="14.81 288.07 14.81 288.07 14.89 288.03 14.81 288.07"/><path class="cls-1" d="M37.7,358.42a.85.85,0,0,1-.14.21C37.64,358.55,37.71,358.47,37.7,358.42Z" transform="translate(-29.52 -77.08)"/><path class="cls-1" d="M32.23,359.82l.15,0c-.05,0,0-.09.06-.16S32.26,359.84,32.23,359.82Z" transform="translate(-29.52 -77.08)"/><path class="cls-1" d="M33.81,357.18c-.05,0,0,0-.08,0l-.15.16C33.63,357.39,33.78,357.29,33.81,357.18Z" transform="translate(-29.52 -77.08)"/><path class="cls-1" d="M33.31,358.63c.28-.29.14-.23,0-.22h0C33,358.81,33.13,358.72,33.31,358.63Z" transform="translate(-29.52 -77.08)"/><path class="cls-1" d="M33.34,358.41s-.05,0-.05,0C33.13,358.54,33.28,358.43,33.34,358.41Z" transform="translate(-29.52 -77.08)"/><path class="cls-1" d="M33,359.81c0-.1-.39.35-.28.22C32.33,360.37,33.3,359.72,33,359.81Z" transform="translate(-29.52 -77.08)"/><polygon class="cls-1" points="4.7 280.58 4.36 280.95 4.67 280.68 4.7 280.58"/><path class="cls-1" d="M34.3,358.25l0-.17a.79.79,0,0,1-.14.11C34.22,358.24,34.19,358.36,34.3,358.25Z" transform="translate(-29.52 -77.08)"/><path class="cls-1" d="M34.19,358.19s0-.05-.12,0A.16.16,0,0,0,34.19,358.19Z" transform="translate(-29.52 -77.08)"/><polygon class="cls-1" points="4.9 280.56 4.85 280.66 4.87 280.73 4.9 280.56"/><path class="cls-1" d="M35,359.06l.18,0c.13-.11.18-.2.11-.18A.76.76,0,0,0,35,359.06Z" transform="translate(-29.52 -77.08)"/><path class="cls-1" d="M35.71,357.87a2.21,2.21,0,0,1-.24.3l.45-.43Z" transform="translate(-29.52 -77.08)"/><path class="cls-1" d="M36,358c.13-.11.47-.23.34-.3C36.24,357.8,36.07,357.83,36,358Z" transform="translate(-29.52 -77.08)"/><polygon class="cls-1" points="7.05 282.62 7.03 282.61 6.29 283.31 7.05 282.62"/><path class="cls-1" d="M39.33,359.11c.1-.26-.49.4-.34.11-.2.14-.12.24-.29.35C38.94,359.46,38.86,359.59,39.33,359.11Z" transform="translate(-29.52 -77.08)"/><path class="cls-1" d="M38.7,359.57l-.14.08Z" transform="translate(-29.52 -77.08)"/><polygon class="cls-1" points="15.04 297.77 14.9 297.95 15.16 297.73 15.04 297.77"/><path class="cls-1" d="M45.28,374.59l-.55.35.53-.26S45.16,374.68,45.28,374.59Z" transform="translate(-29.52 -77.08)"/><path class="cls-1" d="M43.23,362.49l-.12.1c-.13.11-.12.14-.12.18Z" transform="translate(-29.52 -77.08)"/><polygon class="cls-1" points="14.04 286.61 14.03 286.59 13.59 286.98 14.04 286.61"/><path class="cls-1" d="M44.73,364s-.14,0-.14-.05S44.15,364.44,44.73,364Z" transform="translate(-29.52 -77.08)"/><path class="cls-2" d="M46.54,372" transform="translate(-29.52 -77.08)"/><path class="cls-1" d="M66.6,352.35c.06,0-.11-.37-.14-.44C66.43,352,66.65,352.44,66.6,352.35Z" transform="translate(-29.52 -77.08)"/><polygon class="cls-1" points="36.77 276.44 36.71 276.28 36.78 276.71 36.77 276.44"/><path class="cls-1" d="M65.64,353.78c.35.63.19-.2.4,0l.09.15-.18-.55C65.85,353.5,65.82,353.93,65.64,353.78Z" transform="translate(-29.52 -77.08)"/><path class="cls-1" d="M64.67,352.52c.14.25,0,.25.12.05l-.05-.06S64.71,352.53,64.67,352.52Z" transform="translate(-29.52 -77.08)"/><path class="cls-1" d="M64.74,352.51c.07-.05-.14-.19,0,0Z" transform="translate(-29.52 -77.08)"/><path class="cls-1" d="M64.49,352.8v-.27c-.08-.14-.18-.14-.2-.26C64.24,352.44,64.33,352.58,64.49,352.8Z" transform="translate(-29.52 -77.08)"/><path class="cls-1" d="M64.63,353.31v-.12C64.59,353.13,64.57,353.12,64.63,353.31Z" transform="translate(-29.52 -77.08)"/><path class="cls-1" d="M64.63,353v.24c.06.1.16.31,0-.09C64.72,353.3,64.65,353.1,64.63,353Z" transform="translate(-29.52 -77.08)"/><path class="cls-1" d="M64.73,353a.56.56,0,0,1,.24.44C65.09,353.3,64.86,352.85,64.73,353Z" transform="translate(-29.52 -77.08)"/><path class="cls-1" d="M65.91,354.47l.15.17,0-.25C66,354.51,65.81,354.27,65.91,354.47Z" transform="translate(-29.52 -77.08)"/><path class="cls-1" d="M63.78,352.72c.06.14.2.36.29.53v-.19A1.05,1.05,0,0,1,63.78,352.72Z" transform="translate(-29.52 -77.08)"/><path class="cls-1" d="M64.07,353.25l0,.28C64.19,353.52,64.15,353.4,64.07,353.25Z" transform="translate(-29.52 -77.08)"/><polygon class="cls-1" points="35.42 276.96 35.36 276.39 35.4 276.98 35.42 276.96"/><polygon class="cls-1" points="33.88 275.81 33.78 275.46 33.91 275.99 33.88 275.81"/><path class="cls-1" d="M63.17,353.06c-.08-.28-.27-.42-.31-.6a1.53,1.53,0,0,0,0,.56C62.92,352.88,63,352.88,63.17,353.06Z" transform="translate(-29.52 -77.08)"/><path class="cls-1" d="M63,353.36a1.88,1.88,0,0,0-.06-.34A1.61,1.61,0,0,0,63,353.36Z" transform="translate(-29.52 -77.08)"/><path class="cls-1" d="M63.89,353.54a1.27,1.27,0,0,0-.27-.35l.23.36Z" transform="translate(-29.52 -77.08)"/><path class="cls-1" d="M63.85,353.57v0l-.1,0Z" transform="translate(-29.52 -77.08)"/><path class="cls-1" d="M63.9,353.54h0S63.92,353.59,63.9,353.54Z" transform="translate(-29.52 -77.08)"/><path class="cls-1" d="M64.53,353.81a1.22,1.22,0,0,0,.3.8A4.33,4.33,0,0,1,64.53,353.81Z" transform="translate(-29.52 -77.08)"/><path class="cls-1" d="M64.17,354l.15,0a1.46,1.46,0,0,1-.16-.36Z" transform="translate(-29.52 -77.08)"/><polygon class="cls-1" points="34.66 277.07 34.66 276.92 34.6 276.91 34.66 277.07"/><path class="cls-1" d="M63.33,353.63c0,.19,0,.23,0,.28a.25.25,0,0,0,.23,0C63.46,353.82,63.38,353.59,63.33,353.63Z" transform="translate(-29.52 -77.08)"/><path class="cls-1" d="M63.6,353.63v0S63.63,353.7,63.6,353.63Z" transform="translate(-29.52 -77.08)"/><path class="cls-1" d="M62.74,354.18l0,.06,0-.06Z" transform="translate(-29.52 -77.08)"/><path class="cls-1" d="M63.56,354c.08.05.06-.06,0-.19a.18.18,0,0,1-.08.12C63.53,354,63.55,354,63.56,354Z" transform="translate(-29.52 -77.08)"/><path class="cls-1" d="M62.91,353.61a1.41,1.41,0,0,0,.18.17C63,353.67,62.86,353.5,62.91,353.61Z" transform="translate(-29.52 -77.08)"/><path class="cls-1" d="M63.53,353.56v0C63.48,353.46,63.5,353.5,63.53,353.56Z" transform="translate(-29.52 -77.08)"/><path class="cls-1" d="M63.53,353.56a1.58,1.58,0,0,0,.06.26.71.71,0,0,0,0-.16Z" transform="translate(-29.52 -77.08)"/><path class="cls-1" d="M63.82,356.71c-.18-.36-.23-.74.06-.41a9.43,9.43,0,0,0-1.1-2.06,1.1,1.1,0,0,1,.15.56c.14.18.45.34.53.7s-.17-.07-.33-.22c.28.41.16.72.52,1.36v-.29A2,2,0,0,0,63.82,356.71Z" transform="translate(-29.52 -77.08)"/><path class="cls-1" d="M63,354.18l0-.07c-.08,0-.18-.16-.38-.4a1.28,1.28,0,0,0,.12.47l.23-.06Z" transform="translate(-29.52 -77.08)"/><path class="cls-1" d="M63.2,354a3.55,3.55,0,0,0,.4,1c.11-.08-.07-.36-.08-.56-.15.19-.05-.25-.3-.4a.23.23,0,0,1,.06-.15.72.72,0,0,1-.19-.13v0h0s0,.07,0,.05h0l.06.15c-.09-.06,0-.1-.06-.15l0-.06h0l-.09.31C63.08,354.15,63.12,354.11,63.2,354Z" transform="translate(-29.52 -77.08)"/><path class="cls-1" d="M65.11,355.5l0-.08C65.08,355.47,65.09,355.5,65.11,355.5Z" transform="translate(-29.52 -77.08)"/><path class="cls-1" d="M64.93,355.31c0-.07-.08-.23,0-.21s.08.19.15.32a.74.74,0,0,0-.21-.48V355a2.94,2.94,0,0,1-.49-.6C64.57,354.74,64.71,355,64.93,355.31Z" transform="translate(-29.52 -77.08)"/><path class="cls-1" d="M64.11,354.76,64,355l.24.29-.1-.2C64.31,355.16,64.17,354.92,64.11,354.76Z" transform="translate(-29.52 -77.08)"/><polygon class="cls-1" points="33.11 276.92 32.92 276.5 33.12 277.13 33.11 276.92"/><polygon class="cls-1" points="32.92 277.08 32.74 276.72 32.8 276.96 32.92 277.08"/><path class="cls-1" d="M54.41,365.4l0,.12A.27.27,0,0,0,54.41,365.4Z" transform="translate(-29.52 -77.08)"/><path class="cls-1" d="M54.7,365.19l-.12-.16C54.63,365.13,54.68,365.19,54.7,365.19Z" transform="translate(-29.52 -77.08)"/><path class="cls-1" d="M57.35,357.14c-.27-.27-.65-.7-.4-.33l.26.35C57.21,357.06,57.27,357.08,57.35,357.14Z" transform="translate(-29.52 -77.08)"/><path class="cls-1" d="M55.61,361.52l.09.09-.2-.36Z" transform="translate(-29.52 -77.08)"/><path class="cls-1" d="M56.65,363l-.25-.16A1.32,1.32,0,0,0,56.65,363Z" transform="translate(-29.52 -77.08)"/><path class="cls-1" d="M53.26,367.05l.26.36C53.58,367.35,53.4,367.21,53.26,367.05Z" transform="translate(-29.52 -77.08)"/><path class="cls-1" d="M60.34,355.46c-.14-.12-.22-.15-.27-.15C60.26,355.49,60.5,355.78,60.34,355.46Z" transform="translate(-29.52 -77.08)"/><path class="cls-1" d="M51.52,361.81a.79.79,0,0,0,.14.23A.48.48,0,0,0,51.52,361.81Z" transform="translate(-29.52 -77.08)"/><path class="cls-1" d="M59.9,355.41l.08.07c0-.09,0-.16.09-.17C59.92,355.18,59.8,355.12,59.9,355.41Z" transform="translate(-29.52 -77.08)"/><path class="cls-1" d="M48.16,372l0,0Z" transform="translate(-29.52 -77.08)"/><path class="cls-1" d="M43.39,370.94s0-.06,0-.09S43.37,370.87,43.39,370.94Z" transform="translate(-29.52 -77.08)"/><path class="cls-1" d="M61.49,354.43c0-.05,0-.05,0,0Z" transform="translate(-29.52 -77.08)"/><path class="cls-1" d="M62.5,355.83c0,.05,0,.11.08.2A1.6,1.6,0,0,1,62.5,355.83Z" transform="translate(-29.52 -77.08)"/><path class="cls-1" d="M60.82,358Z" transform="translate(-29.52 -77.08)"/><path class="cls-1" d="M61.65,354.57l-.12-.09A.31.31,0,0,0,61.65,354.57Z" transform="translate(-29.52 -77.08)"/><path class="cls-1" d="M61.54,354.39l.06,0C61.57,354.34,61.55,354.3,61.54,354.39Z" transform="translate(-29.52 -77.08)"/><path class="cls-1" d="M61.43,354.48s.06,0,.1,0,0,0,0-.05Z" transform="translate(-29.52 -77.08)"/><path class="cls-1" d="M49.83,368.3l0,0C49.89,368.43,49.88,368.4,49.83,368.3Z" transform="translate(-29.52 -77.08)"/><polygon class="cls-1" points="29.27 284.51 29.26 284.49 29.25 284.48 29.27 284.51"/><path class="cls-1" d="M58.83,362c-.25-.49-.18-.46-.07-.39l-.75-1Z" transform="translate(-29.52 -77.08)"/><path class="cls-1" d="M53.84,366.06l.35.22c.32.57.1.47.54.81-.89-1,.25-.4-.64-1.43l.25.16s0,.07,0,.07c.54.4-.56-.81-.29-.79a.61.61,0,0,1,.36.3l-.11-.35c.05,0,.2.18.15.19l.1-.24,0,0a5.5,5.5,0,0,1-.33-.61c.17.11.07.13.19.25l-.12-.34c.27.24.41.57.31.59,1,1-.14-.34.57.11v.21c.56.54.45.27.86.55-.18-.17-1-.76-1.09-1.1.09.05.16.05.05-.2.31.37.29.23.34.15l.4.5a3.7,3.7,0,0,0-.39-.71c.13,0,.46.35.74.66.2,0-.6-.54-.51-.77.27.1.18-.16.08-.58.22.11.23.32.37.44l-.24-.45s.11.12.16.18c-.06-.2-.39-.5-.41-.72-.4-.57.83.66.46-.06a5.13,5.13,0,0,1,.39.51,4.74,4.74,0,0,0-.39-1.07l.37.25a3.48,3.48,0,0,1-.79-1.3l-.4-.37-.05-.39a2,2,0,0,1,.34.49l-.07-.15a2.81,2.81,0,0,1,.57.78l-.3-.27a7.86,7.86,0,0,0,.66,1,.38.38,0,0,1-.06-.17,1.7,1.7,0,0,0,.15.21c0,.05,0-.07-.1-.22l.47.54-.16-.23.46.21a6.5,6.5,0,0,1-.73-2,10.86,10.86,0,0,0,.85,1.21c-.45-.49,0,.35-.2.33.1,0,.26.26.3.35l-.14-.63c.29.41.27.27.45.4-.64-.78-.24-.65-.33-1,.2.27.38.56.23.57.55.53-.54-1.06,0-.62,0,0-.06,0,0,.14-.12-.29.17-.2.3.06l0,0c.24,0,.53-.36.07-1.08l.65,1-1.31-2.58a17.82,17.82,0,0,1,1.56,2.43c.1.06.21.12.16-.15a4.86,4.86,0,0,1-.66-.91,8.58,8.58,0,0,0,.83.8,3.53,3.53,0,0,1-.63-1.1c.09.15.64.94.68,1.05l-.46-1a6.19,6.19,0,0,0,.74,1c-.14-.18.15-.08.13-.2l-.21-.18c.28,0-.68-1.44-.45-1.52a5.82,5.82,0,0,0,.89,1.3,19.76,19.76,0,0,1-1.36-3l.21.25-.06-.4c.37.79,1.12,2.48,1.38,3.15.21.17.23.32.32.22.2.24.19.43.17.47h.35c-.37-.56-.17-.69-.48-1.16l.11.76c-.37-.55-.87-1.72-.62-1.72a13,13,0,0,1,.72,1.22c-.1-.21-.07-.48,0-.35l.11.35c.23.16-.3-.85.15-.38.07,0,.58.66.37.32-.46-.61-1.71-2.63-2-3.15a8.48,8.48,0,0,1,.86.78c.38.48.63,1.3,1,1.7a2.33,2.33,0,0,1-.19-.45c.12.11.27.5.32.37-.33-.59.22-.06-.25-.52,0-.22.17.06.27,0a5.19,5.19,0,0,1-.67-1.58,3,3,0,0,0,.28.42c.22-.07.49.15.68.05a2.13,2.13,0,0,1,.39.53c0-.12-.12-.33-.08-.38.4.46-.08.15.36.72a1.76,1.76,0,0,1-.17-.81c-.32-.52-.24,0-.2.26a5,5,0,0,1-.71-2c.06-.28.34.43.31.31.36,0-.46-1.43.08-1a9.09,9.09,0,0,1,.72,1.26c0,.25-.36-.19-.43-.12l.23.16c0,.18,0,.35-.1.24.32.38.53-.2,1,.08a1.38,1.38,0,0,0-.19-.56l0,.11c-.27-.35-.15-.6-.33-.73-.05-.32-.16-.81.09-.66l.31.53c-.08-.16-.26-.28-.21-.09-.07-.27.6.63.29-.12l-.29-.33c0-.32-.22-1,0-.86-.33-.51,0,.08-.41-.5.49.74-.34.13.22.89-.48-.68-.32-.23-.77-.79.1.18.22.32.07.29l.06.17h0v0s0,0,0,0a1.29,1.29,0,0,1,.2.25c.16.43,0,.51.05.75-.11-.06-.09-.22-.22-.39l.08.36c-.22-.39-.51-.57-.49-.88l-.14.05c-.2-.17-.36-.2-.33,0-.11-.05.08.52,0,.18l-.08.36-.05-.09c-.23.06,0,.88-.68.3,0,.14,0,.3-.19.25l-.22-.32c0,.16-.46-.18-.29.19-.62-.85-.54,0-.78,0l.25.43c-.11,0-.14.23-.16.48l.24.38c.08.37-.45-.1-.6,0-.08-.15,0-.14.07-.07-.75-.73,0,.9-.62.39,0,.17,0,.15-.11.07v0h0l-.2-.15a1.59,1.59,0,0,0,.19.16.34.34,0,0,0,0,.24l-.28-.38h0c-.15-.11.08.22.31.51a1.55,1.55,0,0,0,.09.29c-.47-.63,0,.31-.51-.35.19.36-.1.43.35,1.15-.06-.09-.11-.12-.09-.15s-.22-.08-.14.15l-.36-.49.33.77a2.14,2.14,0,0,1-.63-.86c.23.73,0,.33.26,1l-.22-.33c0,.05.17.55-.05.3-.55-.53-.66.34-1.39,0,.75.9-.46-.32.07.42a1.69,1.69,0,0,1-.41-.53c0,.34-.5-.17-.16.53-.18-.21-.21-.35-.32-.47,0,.05.09.23,0,.11a.64.64,0,0,1-.16-.32c-.14.16.35.85.82,1.5-.31-.24-.32-.17-.06.29-.19-.18-.4-.36-.35-.52-.08,0-.58,0-.2.47-.11-.11-.1,0-.07.09-.15.07-.2,0-.29.17l.1.06c.43.64,0,.21,0,.36l0-.06c-.57-.26.07.28-.54,0l.31.36c.62.82-.57-.32-.45.09l.21.18c.16.33-1.07-.93-1.23-1a.36.36,0,0,1-.09-.2c-.57-.32.38.5.33.73-.24-.25-.51-.7-.65-.67-.22-.17.43,1.06-.1.67a1.64,1.64,0,0,1,.45.56c0,.15-.9-.53-.45.17a.67.67,0,0,1-.15-.14,2,2,0,0,0,.24.85c-1.15-1.19.09,1-.92-.16l-.17.26-.1-.12c-.21.05,0,.37.19.68-.1,0-.18-.17-.23-.23-.41,0-.39,0,0,.74l-.35-.35c.15.26-.82-.29-.63.31a.93.93,0,0,1-.13-.18c.18.62-1.49-.48-.31.89l.17.46c.28-.08.52.59.81.73,0,.14-.57-.21-.55-.36l.08.05c-.63-.7-.46,0-.91-.47-.32.39-1.05.37-1.41.7l.57.47-.15.09c-.15-.08-.45-.35-.35-.42-.34-.24.12.39.23.5-.37,0-.56-.65-.62-.61l0,.11.08,0c.16.26.39.49.27.56s-.37-.27-.41-.26-.06-.05-.05,0l-.19.12.48.33c.14.26-.16.12.39.49-.85-.58-.8.33-1.09.19.23.38.14.47,0,.56.12.05.62.46.47.51-1-.93-.6-.2-1.4-.75.55.35-.14.4.65.88-.16,0-.39-.33-.68-.47.21.54-.65.25-.73.63a2.57,2.57,0,0,1,.53.46l-.8-.42c0,.11.75.69.2.4.13.08.32.2.33.27-1.1,0-.28,1.48-2,1,.33.14.32.21.29.27a3.74,3.74,0,0,1,.54.4l-.7-.18c.5.44-.15.27.34.67l0-.14c.53.54,1.44.86,2.19,1.45-.6-.61,1.21.49.36-.41.19.09.23.22.42.34-.3-.29-.33-.4-.11-.38l.07.07c.12-.32.52-.18,1-.3l-.39-.27c.1,0,.23.06.34.1-.5-.52-.17.15-.74-.41.82.52.37-.42,1.26.21.08-.09-.44-.32-.36-.41l.25.17-.28-.27c.1,0,.41.18.61.34,0,0,0,.09,0,.12.34.14.09-.3.2-.26l-.21,0c0-.43.54-.49.29-1.12l-.18-.13c-.15-.45.31,0,.34-.31l0,0c-.13-.19-.17-.31-.1-.35.15.22.46.24.62.5-.16-.5-.18-.33-.68-1l.3.22c-.21-.27-.34-.39-.32-.56.17.3.48.31.71.69.78.33-.32-.86.64-.16-.67-.78-.59-.2-.7-.4-.29-.18-.49-.6-.36-.6s1.08.78,1.21.61c0,0,0,.06,0,.08.25.11-.14-.37.24-.15-.42-.47.11-.07-.45-.63v.28c-.07-.23-.67-1-.21-.78a2.36,2.36,0,0,1,.28.42c.21.12,0-.19.18-.07.56.56,0,.3.3.81.29.19-.25-.57.33.07-.73-.82.25-.06-.25-.75l.33.33c0-.06-.16-.26-.12-.28l.39.49c-.3-.46.49.14.36-.14-.16.19-.45-.36-.77-.52-.24-.67,1,.74,1.09.34,0,.08-.32-.08-.43-.28a1.25,1.25,0,0,1,.51.24c.09-.23-.37-.32-.51-.6.46.36-.09-.24-.15-.44l.34.34c.4,0-.66-.76-.23-.66l.4.55,0-.21.36.41c-.19-.39-.09-.34.11-.32-.26-.22-.6-.64-.53-.73.26.15.29.36.36.19.18.25.42.55.06.28l.29.36c.29.18.2-.1.24-.14a.21.21,0,0,1-.13,0l-.29-.64a1.24,1.24,0,0,1,.31.35c0-.07-.13-.25-.11-.33a3.26,3.26,0,0,1,.6.79l-.14-.46a3.83,3.83,0,0,1,.48.38c.24.09-.3-.75,0-.64a.55.55,0,0,1-.09-.19c.17,0,.59.22.36-.3l.55.45c0-.21-.7-.56-.7-.92s.45.41.62.51c-.17-.31-.54-.95,0-.62C53.94,366,53.84,366,53.84,366.06ZM55,364.68c0,.1.19.38,0,.18C54.63,364.41,54.82,364.59,55,364.68Zm1.41-2.58c.07.14,0,.1-.15,0S56.27,362,56.38,362.1Zm4.8-7.06v0C61,354.94,61.09,355,61.18,355Zm.25.1a.51.51,0,0,0-.09-.18c0,.11,0,.14,0,.13S61.44,355.26,61.43,355.14ZM47.11,366.45l.11.06C47.27,366.66,47.19,366.56,47.11,366.45Z" transform="translate(-29.52 -77.08)"/><path class="cls-1" d="M56.53,362.81c-.06-.06-.11-.13-.17-.2A.54.54,0,0,0,56.53,362.81Z" transform="translate(-29.52 -77.08)"/><polygon class="cls-1" points="23.69 289.9 23.69 289.9 23.74 289.97 23.69 289.9"/><path class="cls-1" d="M61.24,360a1,1,0,0,1-.18-.18C61.12,359.88,61.18,360,61.24,360Z" transform="translate(-29.52 -77.08)"/><path class="cls-1" d="M61.85,354l0,.17c0-.05.11,0,.17.09C61.92,354.15,61.83,354,61.85,354Z" transform="translate(-29.52 -77.08)"/><path class="cls-1" d="M64,356.23c0-.06,0,0,0-.09L64,356C63.9,356,63.94,356.17,64,356.23Z" transform="translate(-29.52 -77.08)"/><path class="cls-1" d="M62.68,355.37c.2.36.19.2.23.1h0C62.65,355,62.67,355.17,62.68,355.37Z" transform="translate(-29.52 -77.08)"/><path class="cls-1" d="M62.91,355.45s0,0,.06,0C62.88,355.21,62.92,355.38,62.91,355.45Z" transform="translate(-29.52 -77.08)"/><path class="cls-1" d="M61.49,354.8c.08.08-.22-.47-.13-.33C61.16,354,61.44,355.13,61.49,354.8Z" transform="translate(-29.52 -77.08)"/><polygon class="cls-1" points="33.83 279.45 33.58 279.02 33.73 279.4 33.83 279.45"/><path class="cls-1" d="M62.66,356.47l.17.07a.32.32,0,0,1,0-.16C62.7,356.39,62.59,356.34,62.66,356.47Z" transform="translate(-29.52 -77.08)"/><path class="cls-1" d="M62.78,356.38s.06,0,0-.12A.17.17,0,0,0,62.78,356.38Z" transform="translate(-29.52 -77.08)"/><polygon class="cls-1" points="33.76 279.66 33.68 279.59 33.59 279.59 33.76 279.66"/><path class="cls-1" d="M61.49,357l0,.19c.07.16.15.23.16.15A.74.74,0,0,0,61.49,357Z" transform="translate(-29.52 -77.08)"/><path class="cls-1" d="M62.5,358a2.22,2.22,0,0,1-.24-.3l.3.54Z" transform="translate(-29.52 -77.08)"/><path class="cls-1" d="M62.24,358.32c.08.16.09.52.21.41C62.37,358.57,62.41,358.39,62.24,358.32Z" transform="translate(-29.52 -77.08)"/><polygon class="cls-1" points="30.68 281.53 30.7 281.5 30.17 280.64 30.68 281.53"/><path class="cls-1" d="M60.08,361.55c.26.13-.31-.54,0-.36-.11-.22-.23-.15-.31-.34C59.8,361.11,59.68,361,60.08,361.55Z" transform="translate(-29.52 -77.08)"/><path class="cls-1" d="M59.74,360.85l-.05-.16A.5.5,0,0,0,59.74,360.85Z" transform="translate(-29.52 -77.08)"/><polygon class="cls-1" points="13.21 293.84 12.97 293.79 13.29 293.94 13.21 293.84"/><path class="cls-1" d="M43.21,371.52l-.54-.37.44.4S43.08,371.44,43.21,371.52Z" transform="translate(-29.52 -77.08)"/><path class="cls-1" d="M56,365.53l-.09-.13c-.12-.12-.14-.12-.19-.11Z" transform="translate(-29.52 -77.08)"/><polygon class="cls-1" points="25.22 288.88 25.24 288.88 24.83 288.46 25.22 288.88"/><path class="cls-1" d="M54.44,367.21c.05,0,0-.14.05-.15S53.94,366.67,54.44,367.21Z" transform="translate(-29.52 -77.08)"/></svg>