<svg id="Calque_1" data-name="Calque 1" xmlns="http://www.w3.org/2000/svg" viewBox="0 0 104.83 44.07"><defs><style>.cls-1{fill:#da1d1f;}</style></defs><title>Sans titre - 1</title><path class="cls-1" d="M119.09,57.36a4.59,4.59,0,0,1-.36,1.87,4.77,4.77,0,0,0-1.48.44,5.34,5.34,0,0,0-1.2.76,10.36,10.36,0,0,0-1.78,2.07c-1.07,1.51-2.11,3.12-4.32,3.94-3.5,2.13-5.57,4.39-9.44,5.56.84,4.13-7,3.16-8.37,6.82-1.5,1.36-1.72,3.24-.07,3.11-2.35,1.43-2.53-.42-4.23,1.25l0-1.55c-.82.05-1.88-.18-2.63.49l-.36,1.73c-3.1-.12-3.24,3-6.31,3.47,2.17.05-.43,1.1.26,2-.64-.28-2.36.27-2-.36-2.39.71-3.61,3.94-5.27,2.55-.17.31-.36.62-.56.94-.55.73-1.14,1-1.73.86a4.07,4.07,0,0,1-1.51-1.18l-.33.7a2.72,2.72,0,0,1-1.44-.6,2.91,2.91,0,0,1-.64-.62,2.47,2.47,0,0,1-.43-.75C63,89.2,59.49,89,56.79,88.41c-1.78-2-2,.41-4.22-.39-1-1.19-3.76-1.62-4-3,1.8,1,3.14-.62,4.75.9-.33-1,3.52,1.28,2.42-.6-4.46-.73-8-4.81-12.16-5.38,1.34-1.6-3.38-3.55-5-4.2l.2-.53a8.32,8.32,0,0,0-4.22-2.31c-2.4-1.32-4.92-2.46-6.16-4.7a7.68,7.68,0,0,0-4.08-3,17.37,17.37,0,0,0-4.18-.91c.83,2.2,2.71,3.36,4.31,4.41s3,2.08,3.46,4.36c-2.17-2.1-2.73-1.56-5.3-2.1l.63,1.29L22.24,72c0,.91-1.5.57-1.82,1.25,1.07.81,2.14,1.55,3.19,2.25-1.33-1.68.26-1.59,1.16-1.92l1.43,1.26c-.18-.53-1-1.42.41-1.06.55.53,1.61.69,2,1.55l-2.07.56c2.57.15,2.3,3.61,4.82,3.72l-.31,1.74,1.81,1-.5.36,2,1.51a2.09,2.09,0,0,0,2.35-.42c.91.49,1.88.81,2,1.33l-1.54.22.77.85c-.47-.68,1.11,0,1.54-.22,2,1.5,1.44,1,2.31,2.54,1.71.29,2.74,2.35,3.51,1.28a35.15,35.15,0,0,0,7.1,5.36l1.49,0a8.76,8.76,0,0,0,3.43,2.32l1.83.68c.32.13.66.26,1,.42l.54.25L61,99l.49.27-.6.09c1.15.28,2.19.56,3.27.75a5.93,5.93,0,0,0,5,1.24,16.59,16.59,0,0,0,2.41-.67,11.68,11.68,0,0,1,2.84-.86,17,17,0,0,0,1.68-.62c.26-.1.51-.21.74-.32a5,5,0,0,0,.45-.26,4.49,4.49,0,0,0,1.21-1.16,5.59,5.59,0,0,0,.91-2.84c1-1.46,3.35-1.27,4.66-1.82l-.54,1,1.36.07c1.69-1.19,2-.75,4.08-2.61,3.57-1,1.79-3.24,2.68-4.87l3.85-.15-.24-.29c.85-2.74,1-1.48,5.21-3.91l-.73-.86c2,.27,1.79-1.58,3.66-2.55.86-.55,4.54-.48,5.4-2.62,3.76-.91,3.62-4.65,6.43-6.1,2-.27,2.19-2.65,3.46-1.25l-.28.19L120,70l-.61-1.17c1.23-.17,2.38-1.44,4-.73a33.63,33.63,0,0,0,.93-3.51,3.38,3.38,0,0,1-1.76,1.12l.26.28c-.57.4-1.84,1.52-2.79,1.5l.59-.87c-1.1.31-.64-.69-.49-1,2.18-.62,1.06-1.4,2.17-2.48.37-.05.95-.31,1,.13.28-.36,1-.71,1.4-1.16s.57-.94,0-1.24l.22,0a16.05,16.05,0,0,1-3.19-1.34A14.51,14.51,0,0,1,119.09,57.36Z" transform="translate(-20.24 -57.36)"/></svg>